  0
SECTION
  2
HEADER
  9
$ACADVER
  1
AC1024
  9
$ACADMAINTVER
 70
6
  9
$DWGCODEPAGE
  3
ANSI_1252
  9
$LASTSAVEDBY
  1
ezdxf
  9
$INSBASE
 10
0.0
 20
0.0
 30
0.0
  9
$EXTMIN
 10
1e+20
 20
1e+20
 30
1e+20
  9
$EXTMAX
 10
-1e+20
 20
-1e+20
 30
-1e+20
  9
$LIMMIN
 10
0.0
 20
0.0
  9
$LIMMAX
 10
420.0
 20
297.0
  9
$ORTHOMODE
 70
0
  9
$REGENMODE
 70
1
  9
$FILLMODE
 70
1
  9
$QTEXTMODE
 70
0
  9
$MIRRTEXT
 70
1
  9
$LTSCALE
 40
1.0
  9
$ATTMODE
 70
1
  9
$TEXTSIZE
 40
2.5
  9
$TRACEWID
 40
1.0
  9
$TEXTSTYLE
  7
Standard
  9
$CLAYER
  8
0
  9
$CELTYPE
  6
ByLayer
  9
$CECOLOR
 62
256
  9
$CELTSCALE
 40
1.0
  9
$DISPSILH
 70
0
  9
$DIMSCALE
 40
1.0
  9
$DIMASZ
 40
2.5
  9
$DIMEXO
 40
0.625
  9
$DIMDLI
 40
3.75
  9
$DIMRND
 40
0.0
  9
$DIMDLE
 40
0.0
  9
$DIMEXE
 40
1.25
  9
$DIMTP
 40
0.0
  9
$DIMTM
 40
0.0
  9
$DIMTXT
 40
2.5
  9
$DIMCEN
 40
2.5
  9
$DIMTSZ
 40
0.0
  9
$DIMTOL
 70
0
  9
$DIMLIM
 70
0
  9
$DIMTIH
 70
0
  9
$DIMTOH
 70
0
  9
$DIMSE1
 70
0
  9
$DIMSE2
 70
0
  9
$DIMTAD
 70
1
  9
$DIMZIN
 70
8
  9
$DIMBLK
  1

  9
$DIMASO
 70
1
  9
$DIMSHO
 70
1
  9
$DIMPOST
  1

  9
$DIMAPOST
  1

  9
$DIMALT
 70
0
  9
$DIMALTD
 70
3
  9
$DIMALTF
 40
0.03937007874
  9
$DIMLFAC
 40
1.0
  9
$DIMTOFL
 70
1
  9
$DIMTVP
 40
0.0
  9
$DIMTIX
 70
0
  9
$DIMSOXD
 70
0
  9
$DIMSAH
 70
0
  9
$DIMBLK1
  1

  9
$DIMBLK2
  1

  9
$DIMSTYLE
  2
ISO-25
  9
$DIMCLRD
 70
0
  9
$DIMCLRE
 70
0
  9
$DIMCLRT
 70
0
  9
$DIMTFAC
 40
1.0
  9
$DIMGAP
 40
0.625
  9
$DIMJUST
 70
0
  9
$DIMSD1
 70
0
  9
$DIMSD2
 70
0
  9
$DIMTOLJ
 70
0
  9
$DIMTZIN
 70
8
  9
$DIMALTZ
 70
0
  9
$DIMALTTZ
 70
0
  9
$DIMUPT
 70
0
  9
$DIMDEC
 70
2
  9
$DIMTDEC
 70
2
  9
$DIMALTU
 70
2
  9
$DIMALTTD
 70
3
  9
$DIMTXSTY
  7
Standard
  9
$DIMAUNIT
 70
0
  9
$DIMADEC
 70
0
  9
$DIMALTRND
 40
0.0
  9
$DIMAZIN
 70
0
  9
$DIMDSEP
 70
44
  9
$DIMATFIT
 70
3
  9
$DIMFRAC
 70
0
  9
$DIMLDRBLK
  1

  9
$DIMLUNIT
 70
2
  9
$DIMLWD
 70
-2
  9
$DIMLWE
 70
-2
  9
$DIMTMOVE
 70
0
  9
$DIMFXL
 40
1.0
  9
$DIMFXLON
 70
0
  9
$DIMJOGANG
 40
0.785398163397
  9
$DIMTFILL
 70
0
  9
$DIMTFILLCLR
 70
0
  9
$DIMARCSYM
 70
0
  9
$DIMLTYPE
  6

  9
$DIMLTEX1
  6

  9
$DIMLTEX2
  6

  9
$DIMTXTDIRECTION
 70
0
  9
$LUNITS
 70
2
  9
$LUPREC
 70
4
  9
$SKETCHINC
 40
1.0
  9
$FILLETRAD
 40
10.0
  9
$AUNITS
 70
0
  9
$AUPREC
 70
2
  9
$MENU
  1
.
  9
$ELEVATION
 40
0.0
  9
$PELEVATION
 40
0.0
  9
$THICKNESS
 40
0.0
  9
$LIMCHECK
 70
0
  9
$CHAMFERA
 40
0.0
  9
$CHAMFERB
 40
0.0
  9
$CHAMFERC
 40
0.0
  9
$CHAMFERD
 40
0.0
  9
$SKPOLY
 70
0
  9
$TDCREATE
 40
2461127.0000810185
  9
$TDUCREATE
 40
2458532.153996898
  9
$TDUPDATE
 40
2461127.0000810185
  9
$TDUUPDATE
 40
2458532.1544311
  9
$TDINDWG
 40
0.0
  9
$TDUSRTIMER
 40
0.0
  9
$USRTIMER
 70
1
  9
$ANGBASE
 50
0.0
  9
$ANGDIR
 70
0
  9
$PDMODE
 70
0
  9
$PDSIZE
 40
0.0
  9
$PLINEWID
 40
0.0
  9
$SPLFRAME
 70
0
  9
$SPLINETYPE
 70
6
  9
$SPLINESEGS
 70
8
  9
$HANDSEED
  5
24F
  9
$SURFTAB1
 70
6
  9
$SURFTAB2
 70
6
  9
$SURFTYPE
 70
6
  9
$SURFU
 70
6
  9
$SURFV
 70
6
  9
$UCSBASE
  2

  9
$UCSNAME
  2

  9
$UCSORG
 10
0.0
 20
0.0
 30
0.0
  9
$UCSXDIR
 10
1.0
 20
0.0
 30
0.0
  9
$UCSYDIR
 10
0.0
 20
1.0
 30
0.0
  9
$UCSORTHOREF
  2

  9
$UCSORTHOVIEW
 70
0
  9
$UCSORGTOP
 10
0.0
 20
0.0
 30
0.0
  9
$UCSORGBOTTOM
 10
0.0
 20
0.0
 30
0.0
  9
$UCSORGLEFT
 10
0.0
 20
0.0
 30
0.0
  9
$UCSORGRIGHT
 10
0.0
 20
0.0
 30
0.0
  9
$UCSORGFRONT
 10
0.0
 20
0.0
 30
0.0
  9
$UCSORGBACK
 10
0.0
 20
0.0
 30
0.0
  9
$PUCSBASE
  2

  9
$PUCSNAME
  2

  9
$PUCSORG
 10
0.0
 20
0.0
 30
0.0
  9
$PUCSXDIR
 10
1.0
 20
0.0
 30
0.0
  9
$PUCSYDIR
 10
0.0
 20
1.0
 30
0.0
  9
$PUCSORTHOREF
  2

  9
$PUCSORTHOVIEW
 70
0
  9
$PUCSORGTOP
 10
0.0
 20
0.0
 30
0.0
  9
$PUCSORGBOTTOM
 10
0.0
 20
0.0
 30
0.0
  9
$PUCSORGLEFT
 10
0.0
 20
0.0
 30
0.0
  9
$PUCSORGRIGHT
 10
0.0
 20
0.0
 30
0.0
  9
$PUCSORGFRONT
 10
0.0
 20
0.0
 30
0.0
  9
$PUCSORGBACK
 10
0.0
 20
0.0
 30
0.0
  9
$USERI1
 70
0
  9
$USERI2
 70
0
  9
$USERI3
 70
0
  9
$USERI4
 70
0
  9
$USERI5
 70
0
  9
$USERR1
 40
0.0
  9
$USERR2
 40
0.0
  9
$USERR3
 40
0.0
  9
$USERR4
 40
0.0
  9
$USERR5
 40
0.0
  9
$WORLDVIEW
 70
1
  9
$SHADEDGE
 70
3
  9
$SHADEDIF
 70
70
  9
$TILEMODE
 70
1
  9
$MAXACTVP
 70
64
  9
$PINSBASE
 10
0.0
 20
0.0
 30
0.0
  9
$PLIMCHECK
 70
0
  9
$PEXTMIN
 10
1e+20
 20
1e+20
 30
1e+20
  9
$PEXTMAX
 10
-1e+20
 20
-1e+20
 30
-1e+20
  9
$PLIMMIN
 10
0.0
 20
0.0
  9
$PLIMMAX
 10
420.0
 20
297.0
  9
$UNITMODE
 70
0
  9
$VISRETAIN
 70
1
  9
$PLINEGEN
 70
0
  9
$PSLTSCALE
 70
1
  9
$TREEDEPTH
 70
3020
  9
$CMLSTYLE
  2
Standard
  9
$CMLJUST
 70
0
  9
$CMLSCALE
 40
20.0
  9
$PROXYGRAPHICS
 70
1
  9
$MEASUREMENT
 70
1
  9
$CELWEIGHT
370
-1
  9
$ENDCAPS
280
0
  9
$JOINSTYLE
280
0
  9
$LWDISPLAY
290
0
  9
$INSUNITS
 70
6
  9
$HYPERLINKBASE
  1

  9
$STYLESHEET
  1

  9
$XEDIT
290
1
  9
$CEPSNTYPE
380
0
  9
$PSTYLEMODE
290
1
  9
$FINGERPRINTGUID
  2
{21AD00E6-0ABA-4633-8A12-2C6A9619A80E}
  9
$VERSIONGUID
  2
{0D04A58B-7701-4FFB-B258-DECBAE1F0E0F}
  9
$EXTNAMES
290
1
  9
$PSVPSCALE
 40
0.0
  9
$OLESTARTUP
290
0
  9
$SORTENTS
280
127
  9
$INDEXCTL
280
0
  9
$HIDETEXT
280
1
  9
$XCLIPFRAME
280
1
  9
$HALOGAP
280
0
  9
$OBSCOLOR
 70
257
  9
$OBSLTYPE
280
0
  9
$INTERSECTIONDISPLAY
280
0
  9
$INTERSECTIONCOLOR
 70
257
  9
$DIMASSOC
280
2
  9
$PROJECTNAME
  1

  9
$CAMERADISPLAY
290
0
  9
$LENSLENGTH
 40
50.0
  9
$CAMERAHEIGHT
 40
0.0
  9
$STEPSPERSEC
 40
24.0
  9
$STEPSIZE
 40
100.0
  9
$3DDWFPREC
 40
2.0
  9
$PSOLWIDTH
 40
0.005
  9
$PSOLHEIGHT
 40
0.08
  9
$LOFTANG1
 40
1.570796326795
  9
$LOFTANG2
 40
1.570796326795
  9
$LOFTMAG1
 40
0.0
  9
$LOFTMAG2
 40
0.0
  9
$LOFTPARAM
 70
7
  9
$LOFTNORMALS
280
1
  9
$LATITUDE
 40
37.795
  9
$LONGITUDE
 40
-122.394
  9
$NORTHDIRECTION
 40
0.0
  9
$TIMEZONE
 70
-8000
  9
$LIGHTGLYPHDISPLAY
280
1
  9
$TILEMODELIGHTSYNCH
280
1
  9
$CMATERIAL
347
20
  9
$SOLIDHIST
280
0
  9
$SHOWHIST
280
1
  9
$DWFFRAME
280
2
  9
$DGNFRAME
280
2
  9
$REALWORLDSCALE
290
1
  9
$INTERFERECOLOR
 62
256
  9
$CSHADOW
280
0
  9
$SHADOWPLANELOCATION
 40
0.0
  0
ENDSEC
  0
SECTION
  2
CLASSES
  0
CLASS
  1
ACDBDICTIONARYWDFLT
  2
AcDbDictionaryWithDefault
  3
ObjectDBX Classes
 90
0
 91
0
280
0
281
0
  0
CLASS
  1
SUN
  2
AcDbSun
  3
SCENEOE
 90
1153
 91
0
280
0
281
0
  0
CLASS
  1
VISUALSTYLE
  2
AcDbVisualStyle
  3
ObjectDBX Classes
 90
4095
 91
0
280
0
281
0
  0
CLASS
  1
MATERIAL
  2
AcDbMaterial
  3
ObjectDBX Classes
 90
1153
 91
0
280
0
281
0
  0
CLASS
  1
SCALE
  2
AcDbScale
  3
ObjectDBX Classes
 90
1153
 91
0
280
0
281
0
  0
CLASS
  1
TABLESTYLE
  2
AcDbTableStyle
  3
ObjectDBX Classes
 90
4095
 91
0
280
0
281
0
  0
CLASS
  1
MLEADERSTYLE
  2
AcDbMLeaderStyle
  3
ACDB_MLEADERSTYLE_CLASS
 90
4095
 91
0
280
0
281
0
  0
CLASS
  1
DICTIONARYVAR
  2
AcDbDictionaryVar
  3
ObjectDBX Classes
 90
0
 91
0
280
0
281
0
  0
CLASS
  1
CELLSTYLEMAP
  2
AcDbCellStyleMap
  3
ObjectDBX Classes
 90
1152
 91
0
280
0
281
0
  0
CLASS
  1
MENTALRAYRENDERSETTINGS
  2
AcDbMentalRayRenderSettings
  3
SCENEOE
 90
1024
 91
0
280
0
281
0
  0
CLASS
  1
ACDBDETAILVIEWSTYLE
  2
AcDbDetailViewStyle
  3
ObjectDBX Classes
 90
1025
 91
0
280
0
281
0
  0
CLASS
  1
ACDBSECTIONVIEWSTYLE
  2
AcDbSectionViewStyle
  3
ObjectDBX Classes
 90
1025
 91
0
280
0
281
0
  0
CLASS
  1
RASTERVARIABLES
  2
AcDbRasterVariables
  3
ISM
 90
0
 91
0
280
0
281
0
  0
CLASS
  1
ACDBPLACEHOLDER
  2
AcDbPlaceHolder
  3
ObjectDBX Classes
 90
0
 91
0
280
0
281
0
  0
CLASS
  1
LAYOUT
  2
AcDbLayout
  3
ObjectDBX Classes
 90
0
 91
0
280
0
281
0
  0
ENDSEC
  0
SECTION
  2
TABLES
  0
TABLE
  2
VPORT
  5
8
330
0
100
AcDbSymbolTable
 70
1
  0
VPORT
  5
23
330
8
100
AcDbSymbolTableRecord
100
AcDbViewportTableRecord
  2
*Active
 70
0
 10
0.0
 20
0.0
 11
1.0
 21
1.0
 12
0.0
 22
0.0
 13
0.0
 23
0.0
 14
0.5
 24
0.5
 15
0.5
 25
0.5
 16
0.0
 26
0.0
 36
1.0
 17
0.0
 27
0.0
 37
0.0
 40
1000.0
 41
1.34
 42
50.0
 43
0.0
 44
0.0
 50
0.0
 51
0.0
 71
0
 72
1000
 73
1
 74
3
 75
0
 76
0
 77
0
 78
0
281
0
 65
0
146
0.0
  0
ENDTAB
  0
TABLE
  2
LTYPE
  5
2
330
0
100
AcDbSymbolTable
 70
3
  0
LTYPE
  5
24
330
2
100
AcDbSymbolTableRecord
100
AcDbLinetypeTableRecord
  2
ByBlock
 70
0
  3

 72
65
 73
0
 40
0.0
  0
LTYPE
  5
25
330
2
100
AcDbSymbolTableRecord
100
AcDbLinetypeTableRecord
  2
ByLayer
 70
0
  3

 72
65
 73
0
 40
0.0
  0
LTYPE
  5
26
330
2
100
AcDbSymbolTableRecord
100
AcDbLinetypeTableRecord
  2
Continuous
 70
0
  3

 72
65
 73
0
 40
0.0
  0
ENDTAB
  0
TABLE
  2
LAYER
  5
1
330
0
100
AcDbSymbolTable
 70
2
  0
LAYER
  5
27
330
1
100
AcDbSymbolTableRecord
100
AcDbLayerTableRecord
  2
0
 70
0
 62
7
  6
Continuous
370
-3
390
13
347
21
  0
LAYER
  5
28
330
1
100
AcDbSymbolTableRecord
100
AcDbLayerTableRecord
  2
Defpoints
 70
0
 62
7
  6
Continuous
290
0
370
-3
390
13
347
21
  0
ENDTAB
  0
TABLE
  2
STYLE
  5
5
330
0
100
AcDbSymbolTable
 70
1
  0
STYLE
  5
29
330
5
100
AcDbSymbolTableRecord
100
AcDbTextStyleTableRecord
  2
Standard
 70
0
 40
0.0
 41
1.0
 50
0.0
 71
0
 42
2.5
  3
txt
  4

  0
ENDTAB
  0
TABLE
  2
VIEW
  5
7
330
0
100
AcDbSymbolTable
 70
0
  0
ENDTAB
  0
TABLE
  2
UCS
  5
6
330
0
100
AcDbSymbolTable
 70
0
  0
ENDTAB
  0
TABLE
  2
APPID
  5
3
330
0
100
AcDbSymbolTable
 70
3
  0
APPID
  5
2A
330
3
100
AcDbSymbolTableRecord
100
AcDbRegAppTableRecord
  2
ACAD
 70
0
  0
APPID
  5
24C
330
3
100
AcDbSymbolTableRecord
100
AcDbRegAppTableRecord
  2
HATCHBACKGROUNDCOLOR
 70
0
  0
APPID
  5
24D
330
3
100
AcDbSymbolTableRecord
100
AcDbRegAppTableRecord
  2
EZDXF
 70
0
  0
ENDTAB
  0
TABLE
  2
DIMSTYLE
  5
4
330
0
100
AcDbSymbolTable
 70
1
100
AcDbDimStyleTable
  0
DIMSTYLE
105
2B
330
4
100
AcDbSymbolTableRecord
100
AcDbDimStyleTableRecord
  2
Standard
 70
0
 40
1.0
 41
2.5
 42
0.625
 43
3.75
 44
1.25
 45
0.0
 46
0.0
 47
0.0
 48
0.0
 49
2.5
140
2.5
141
2.5
142
0.0
143
0.03937007874
144
1.0
145
0.0
146
1.0
147
0.625
148
0.0
 69
0
 70
0
 71
0
 72
0
 73
0
 74
0
 75
0
 76
0
 77
1
 78
8
 79
3
170
0
171
3
172
1
173
0
174
0
175
0
176
0
177
0
178
0
179
2
271
2
272
2
273
2
274
3
275
0
276
0
277
2
278
44
279
0
280
0
281
0
282
0
283
0
284
8
285
0
286
0
288
0
289
3
290
0
371
-2
372
-2
  0
ENDTAB
  0
TABLE
  2
BLOCK_RECORD
  5
9
330
0
100
AcDbSymbolTable
 70
2
  0
BLOCK_RECORD
  5
17
330
9
100
AcDbSymbolTableRecord
100
AcDbBlockTableRecord
  2
*Model_Space
340
1A
 70
0
280
1
281
0
  0
BLOCK_RECORD
  5
1B
330
9
100
AcDbSymbolTableRecord
100
AcDbBlockTableRecord
  2
*Paper_Space
340
1E
 70
0
280
1
281
0
  0
ENDTAB
  0
ENDSEC
  0
SECTION
  2
BLOCKS
  0
BLOCK
  5
18
330
17
100
AcDbEntity
  8
0
100
AcDbBlockBegin
  2
*Model_Space
 70
0
 10
0.0
 20
0.0
 30
0.0
  3
*Model_Space
  1

  0
ENDBLK
  5
19
330
17
100
AcDbEntity
  8
0
100
AcDbBlockEnd
  0
BLOCK
  5
1C
330
1B
100
AcDbEntity
  8
0
100
AcDbBlockBegin
  2
*Paper_Space
 70
0
 10
0.0
 20
0.0
 30
0.0
  3
*Paper_Space
  1

  0
ENDBLK
  5
1D
330
1B
100
AcDbEntity
  8
0
100
AcDbBlockEnd
  0
ENDSEC
  0
SECTION
  2
ENTITIES
  0
LINE
  5
2F
330
17
100
AcDbEntity
  8
0
100
AcDbLine
 10
2324.490234375
 20
-869.1905517578125
 30
0.0
 11
2324.490234375
 21
-2376.46142578125
 31
0.0
  0
LINE
  5
30
330
17
100
AcDbEntity
  8
0
100
AcDbLine
 10
2659.594482421875
 20
-1544.2120361328125
 30
0.0
 11
2659.594482421875
 21
-2380.86962890625
 31
0.0
  0
LINE
  5
31
330
17
100
AcDbEntity
  8
0
100
AcDbLine
 10
2761.542724609375
 20
-2381.91748046875
 30
0.0
 11
2761.542724609375
 21
-1546.3714599609375
 31
0.0
  0
LINE
  5
32
330
17
100
AcDbEntity
  8
0
100
AcDbLine
 10
2419.069580078125
 20
-2373.630126953125
 30
0.0
 11
2419.069580078125
 21
-865.6953735351562
 31
0.0
  0
LINE
  5
33
330
17
100
AcDbEntity
  8
0
100
AcDbLine
 10
1033.179443359375
 20
-2394.046875
 30
0.0
 11
1049.5994873046875
 21
-2394.046875
 31
0.0
  0
LINE
  5
34
330
17
100
AcDbEntity
  8
0
100
AcDbLine
 10
1049.28515625
 20
-2394.597412109375
 30
0.0
 11
1183.22119140625
 21
-2394.597412109375
 31
0.0
  0
LINE
  5
35
330
17
100
AcDbEntity
  8
0
100
AcDbLine
 10
1173.2042236328125
 20
-2395.068115234375
 30
0.0
 11
1033.0804443359375
 21
-2395.068115234375
 31
0.0
  0
LINE
  5
36
330
17
100
AcDbEntity
  8
0
100
AcDbLine
 10
2989.19140625
 20
-2367.10791015625
 30
0.0
 11
2989.19140625
 21
-854.4300537109375
 31
0.0
  0
LINE
  5
37
330
17
100
AcDbEntity
  8
0
100
AcDbLine
 10
1179.5244140625
 20
-2366.22216796875
 30
0.0
 11
2994.28076171875
 21
-2366.22216796875
 31
0.0
  0
LINE
  5
38
330
17
100
AcDbEntity
  8
0
100
AcDbLine
 10
2955.2333984375
 20
-851.822265625
 30
0.0
 11
2955.2333984375
 21
-2302.009033203125
 31
0.0
  0
LINE
  5
39
330
17
100
AcDbEntity
  8
0
100
AcDbLine
 10
1110.6390380859375
 20
-2405.599609375
 30
0.0
 11
1196.93505859375
 21
-2405.599609375
 31
0.0
  0
LINE
  5
3A
330
17
100
AcDbEntity
  8
0
100
AcDbLine
 10
987.9107055664062
 20
-835.4315795898438
 30
0.0
 11
987.9107055664062
 21
-2391.312744140625
 31
0.0
  0
LINE
  5
3B
330
17
100
AcDbEntity
  8
0
100
AcDbLine
 10
1195.6671142578125
 20
-2409.279052734375
 30
0.0
 11
1110.6064453125
 21
-2409.279052734375
 31
0.0
  0
LINE
  5
3C
330
17
100
AcDbEntity
  8
0
100
AcDbLine
 10
2608.63134765625
 20
-866.227783203125
 30
0.0
 11
2608.63134765625
 21
-1540.848876953125
 31
0.0
  0
LINE
  5
3D
330
17
100
AcDbEntity
  8
0
100
AcDbLine
 10
1045.9278564453125
 20
-2398.708740234375
 30
0.0
 11
1045.9278564453125
 21
-816.658935546875
 31
0.0
  0
LINE
  5
3E
330
17
100
AcDbEntity
  8
0
100
AcDbLine
 10
2663.161376953125
 20
-1541.7559814453125
 30
0.0
 11
2663.161376953125
 21
-923.4389038085938
 31
0.0
  0
LINE
  5
3F
330
17
100
AcDbEntity
  8
0
100
AcDbLine
 10
1499.823974609375
 20
-2363.0546875
 30
0.0
 11
1177.396484375
 21
-2363.0546875
 31
0.0
  0
LINE
  5
40
330
17
100
AcDbEntity
  8
0
100
AcDbLine
 10
2611.763671875
 20
-920.6653442382812
 30
0.0
 11
2611.763671875
 21
-863.104736328125
 31
0.0
  0
LINE
  5
41
330
17
100
AcDbEntity
  8
0
100
AcDbLine
 10
0.6596302390098572
 20
-3018.51318359375
 30
0.0
 11
2676.78466796875
 21
-3018.51318359375
 31
0.0
  0
LINE
  5
42
330
17
100
AcDbEntity
  8
0
100
AcDbLine
 10
1430.64208984375
 20
-93.90840911865234
 30
0.0
 11
1434.4818115234375
 21
-104.33567810058594
 31
0.0
  0
LINE
  5
43
330
17
100
AcDbEntity
  8
0
100
AcDbLine
 10
2955.32861328125
 20
-2390.138916015625
 30
0.0
 11
1501.852783203125
 21
-2390.138916015625
 31
0.0
  0
LINE
  5
44
330
17
100
AcDbEntity
  8
0
100
AcDbLine
 10
2992.90185546875
 20
-2367.702880859375
 30
0.0
 11
2955.40234375
 21
-2367.702880859375
 31
0.0
  0
LINE
  5
45
330
17
100
AcDbEntity
  8
0
100
AcDbLine
 10
2995.69091796875
 20
-2380.625
 30
0.0
 11
2995.69091796875
 21
-2369.373046875
 31
0.0
  0
LINE
  5
46
330
17
100
AcDbEntity
  8
0
100
AcDbLine
 10
983.292724609375
 20
-816.8814086914062
 30
0.0
 11
983.292724609375
 21
-829.3735961914062
 31
0.0
  0
LINE
  5
47
330
17
100
AcDbEntity
  8
0
100
AcDbLine
 10
2090.757080078125
 20
-8.274965286254883
 30
0.0
 11
2098.820556640625
 21
-0.07943189144134521
 31
0.0
  0
LINE
  5
48
330
17
100
AcDbEntity
  8
0
100
AcDbLine
 10
2997.9873046875
 20
-2304.249755859375
 30
0.0
 11
2997.9873046875
 21
-2379.369873046875
 31
0.0
  0
LINE
  5
49
330
17
100
AcDbEntity
  8
0
100
AcDbLine
 10
2947.07958984375
 20
-855.6972045898438
 30
0.0
 11
2950.103759765625
 21
-847.13232421875
 31
0.0
  0
LINE
  5
4A
330
17
100
AcDbEntity
  8
0
100
AcDbLine
 10
2110.2705078125
 20
-18.005550384521484
 30
0.0
 11
2088.357666015625
 21
-11.132843017578125
 31
0.0
  0
LINE
  5
4B
330
17
100
AcDbEntity
  8
0
100
AcDbLine
 10
2611.837646484375
 20
-852.7614135742188
 30
0.0
 11
2945.60546875
 21
-852.7614135742188
 31
0.0
  0
LINE
  5
4C
330
17
100
AcDbEntity
  8
0
100
AcDbLine
 10
986.0126342773438
 20
-818.1182861328125
 30
0.0
 11
2334.282958984375
 21
-818.1182861328125
 31
0.0
  0
LINE
  5
4D
330
17
100
AcDbEntity
  8
0
100
AcDbLine
 10
2336.70263671875
 20
-870.5484008789062
 30
0.0
 11
986.0147705078125
 21
-870.5484008789062
 31
0.0
  0
LINE
  5
4E
330
17
100
AcDbEntity
  8
0
100
AcDbLine
 10
2948.071533203125
 20
-855.2620239257812
 30
0.0
 11
2618.11328125
 21
-855.2620239257812
 31
0.0
  0
LINE
  5
4F
330
17
100
AcDbEntity
  8
0
100
AcDbLine
 10
2344.334228515625
 20
-855.4503784179688
 30
0.0
 11
2605.613525390625
 21
-855.4503784179688
 31
0.0
  0
LINE
  5
50
330
17
100
AcDbEntity
  8
0
100
AcDbLine
 10
2610.625
 20
-859.3607788085938
 30
0.0
 11
2344.353759765625
 21
-859.3607788085938
 31
0.0
  0
LINE
  5
51
330
17
100
AcDbEntity
  8
0
100
AcDbLine
 10
3237.2529296875
 20
-65.44000244140625
 30
0.0
 11
3231.735107421875
 21
-54.44520568847656
 31
0.0
  0
LINE
  5
52
330
17
100
AcDbEntity
  8
0
100
AcDbLine
 10
2890.6533203125
 20
-44.33648681640625
 30
0.0
 11
2878.9580078125
 21
-35.74142074584961
 31
0.0
  0
LINE
  5
53
330
17
100
AcDbEntity
  8
0
100
AcDbLine
 10
2536.974609375
 20
-3012.006103515625
 30
0.0
 11
1784.4000244140625
 21
-3012.006103515625
 31
0.0
  0
LINE
  5
54
330
17
100
AcDbEntity
  8
0
100
AcDbLine
 10
2560.674560546875
 20
-8.785392761230469
 30
0.0
 11
2539.46923828125
 21
-8.785392761230469
 31
0.0
  0
LINE
  5
55
330
17
100
AcDbEntity
  8
0
100
AcDbLine
 10
3235.66552734375
 20
-49.89148712158203
 30
0.0
 11
3241.854736328125
 21
-64.38363647460938
 31
0.0
  0
LINE
  5
56
330
17
100
AcDbEntity
  8
0
100
AcDbLine
 10
2417.106689453125
 20
-12.589942932128906
 30
0.0
 11
2403.265380859375
 21
-12.589942932128906
 31
0.0
  0
LINE
  5
57
330
17
100
AcDbEntity
  8
0
100
AcDbLine
 10
3275.778564453125
 20
-36.73281478881836
 30
0.0
 11
3265.556396484375
 21
-25.6886043548584
 31
0.0
  0
LINE
  5
58
330
17
100
AcDbEntity
  8
0
100
AcDbLine
 10
2401.790283203125
 20
-7.786532402038574
 30
0.0
 11
2414.435791015625
 21
-4.617801189422607
 31
0.0
  0
LINE
  5
59
330
17
100
AcDbEntity
  8
0
100
AcDbLine
 10
2897.957275390625
 20
-9.561083793640137
 30
0.0
 11
2891.40087890625
 21
-3.6509628295898438
 31
0.0
  0
LINE
  5
5A
330
17
100
AcDbEntity
  8
0
100
AcDbLine
 10
3421.72216796875
 20
-36.06791305541992
 30
0.0
 11
3410.5126953125
 21
-32.200801849365234
 31
0.0
  0
LINE
  5
5B
330
17
100
AcDbEntity
  8
0
100
AcDbLine
 10
3191.209716796875
 20
-63.5838623046875
 30
0.0
 11
3200.63818359375
 21
-77.25364685058594
 31
0.0
  0
LINE
  5
5C
330
17
100
AcDbEntity
  8
0
100
AcDbLine
 10
2675.64404296875
 20
-4.070372581481934
 30
0.0
 11
2660.702880859375
 21
-4.070372581481934
 31
0.0
  0
LINE
  5
5D
330
17
100
AcDbEntity
  8
0
100
AcDbLine
 10
3144.367431640625
 20
-17.368303298950195
 30
0.0
 11
3154.376708984375
 21
-17.368303298950195
 31
0.0
  0
LINE
  5
5E
330
17
100
AcDbEntity
  8
0
100
AcDbLine
 10
3250.623291015625
 20
-23.108760833740234
 30
0.0
 11
3260.625
 21
-23.108760833740234
 31
0.0
  0
LINE
  5
5F
330
17
100
AcDbEntity
  8
0
100
AcDbLine
 10
2623.112548828125
 20
-32.79436492919922
 30
0.0
 11
2633.11083984375
 21
-32.79436492919922
 31
0.0
  0
LINE
  5
60
330
17
100
AcDbEntity
  8
0
100
AcDbLine
 10
3165.1826171875
 20
-44.3199348449707
 30
0.0
 11
3149.263671875
 21
-38.42561721801758
 31
0.0
  0
LINE
  5
61
330
17
100
AcDbEntity
  8
0
100
AcDbLine
 10
2750.052978515625
 20
-57.99336624145508
 30
0.0
 11
2731.7890625
 21
-61.416141510009766
 31
0.0
  0
LINE
  5
62
330
17
100
AcDbEntity
  8
0
100
AcDbLine
 10
3442.599609375
 20
-47.83319091796875
 30
0.0
 11
3446.761962890625
 21
-58.17047882080078
 31
0.0
  0
LINE
  5
63
330
17
100
AcDbEntity
  8
0
100
AcDbLine
 10
2464.4716796875
 20
-45.327919006347656
 30
0.0
 11
2450.565673828125
 21
-40.80774688720703
 31
0.0
  0
LINE
  5
64
330
17
100
AcDbEntity
  8
0
100
AcDbLine
 10
2410.71826171875
 20
-44.98833084106445
 30
0.0
 11
2393.227294921875
 21
-44.98833084106445
 31
0.0
  0
LINE
  5
65
330
17
100
AcDbEntity
  8
0
100
AcDbLine
 10
2268.25537109375
 20
-9.918760299682617
 30
0.0
 11
2279.13427734375
 21
-11.92856502532959
 31
0.0
  0
LINE
  5
66
330
17
100
AcDbEntity
  8
0
100
AcDbLine
 10
2123.265625
 20
-34.95817565917969
 30
0.0
 11
2110.288330078125
 21
-32.220882415771484
 31
0.0
  0
LINE
  5
67
330
17
100
AcDbEntity
  8
0
100
AcDbLine
 10
2845.092041015625
 20
-24.0241756439209
 30
0.0
 11
2854.30810546875
 21
-29.4876651763916
 31
0.0
  0
LINE
  5
68
330
17
100
AcDbEntity
  8
0
100
AcDbLine
 10
2635.971923828125
 20
-19.69487190246582
 30
0.0
 11
2640.209228515625
 21
-31.657787322998047
 31
0.0
  0
LINE
  5
69
330
17
100
AcDbEntity
  8
0
100
AcDbLine
 10
3200.359619140625
 20
-19.04180335998535
 30
0.0
 11
3204.28955078125
 21
-30.653934478759766
 31
0.0
  0
LINE
  5
6A
330
17
100
AcDbEntity
  8
0
100
AcDbLine
 10
1946.852294921875
 20
-13.640432357788086
 30
0.0
 11
1955.5616455078125
 21
-35.14441680908203
 31
0.0
  0
LINE
  5
6B
330
17
100
AcDbEntity
  8
0
100
AcDbLine
 10
2504.97998046875
 20
-44.042118072509766
 30
0.0
 11
2513.775634765625
 21
-50.227420806884766
 31
0.0
  0
LINE
  5
6C
330
17
100
AcDbEntity
  8
0
100
AcDbLine
 10
2634.342529296875
 20
-40.704864501953125
 30
0.0
 11
2621.8681640625
 21
-35.641727447509766
 31
0.0
  0
LINE
  5
6D
330
17
100
AcDbEntity
  8
0
100
AcDbLine
 10
1681.952392578125
 20
-3020.201416015625
 30
0.0
 11
1673.162353515625
 21
-3020.201416015625
 31
0.0
  0
LINE
  5
6E
330
17
100
AcDbEntity
  8
0
100
AcDbLine
 10
2398.155517578125
 20
-36.78274917602539
 30
0.0
 11
2409.784912109375
 21
-40.638240814208984
 31
0.0
  0
LINE
  5
6F
330
17
100
AcDbEntity
  8
0
100
AcDbLine
 10
2821.991943359375
 20
-71.7203598022461
 30
0.0
 11
2807.039306640625
 21
-60.407718658447266
 31
0.0
  0
LINE
  5
70
330
17
100
AcDbEntity
  8
0
100
AcDbLine
 10
2225.627197265625
 20
-3014.137451171875
 30
0.0
 11
2208.116943359375
 21
-3014.137451171875
 31
0.0
  0
LINE
  5
71
330
17
100
AcDbEntity
  8
0
100
AcDbLine
 10
3187.356201171875
 20
-8.259444236755371
 30
0.0
 11
3196.696533203125
 21
-13.446202278137207
 31
0.0
  0
LINE
  5
72
330
17
100
AcDbEntity
  8
0
100
AcDbLine
 10
2196.34716796875
 20
-26.67428207397461
 30
0.0
 11
2193.176025390625
 21
-15.263415336608887
 31
0.0
  0
LINE
  5
73
330
17
100
AcDbEntity
  8
0
100
AcDbLine
 10
2299.467529296875
 20
-35.12678146362305
 30
0.0
 11
2288.368896484375
 21
-33.06300735473633
 31
0.0
  0
LINE
  5
74
330
17
100
AcDbEntity
  8
0
100
AcDbLine
 10
1342.781005859375
 20
-28.622220993041992
 30
0.0
 11
1330.2332763671875
 21
-19.941150665283203
 31
0.0
  0
LINE
  5
75
330
17
100
AcDbEntity
  8
0
100
AcDbLine
 10
3281.795166015625
 20
-29.40727424621582
 30
0.0
 11
3287.536865234375
 21
-43.60160446166992
 31
0.0
  0
LINE
  5
76
330
17
100
AcDbEntity
  8
0
100
AcDbLine
 10
3250.299560546875
 20
-59.609195709228516
 30
0.0
 11
3257.601318359375
 21
-69.75192260742188
 31
0.0
  0
LINE
  5
77
330
17
100
AcDbEntity
  8
0
100
AcDbLine
 10
3192.10107421875
 20
-19.092187881469727
 30
0.0
 11
3185.0849609375
 21
-13.486498832702637
 31
0.0
  0
LINE
  5
78
330
17
100
AcDbEntity
  8
0
100
AcDbLine
 10
3284.16064453125
 20
-7.984874725341797
 30
0.0
 11
3270.67236328125
 21
-5.380120754241943
 31
0.0
  0
LINE
  5
79
330
17
100
AcDbEntity
  8
0
100
AcDbLine
 10
2137.65673828125
 20
-27.075748443603516
 30
0.0
 11
2124.023193359375
 21
-16.91930389404297
 31
0.0
  0
LINE
  5
7A
330
17
100
AcDbEntity
  8
0
100
AcDbLine
 10
2896.701904296875
 20
-33.08369827270508
 30
0.0
 11
2902.669677734375
 21
-27.7668514251709
 31
0.0
  0
LINE
  5
7B
330
17
100
AcDbEntity
  8
0
100
AcDbLine
 10
2751.8740234375
 20
-61.45146942138672
 30
0.0
 11
2765.6240234375
 21
-61.45146942138672
 31
0.0
  0
LINE
  5
7C
330
17
100
AcDbEntity
  8
0
100
AcDbLine
 10
3330.41357421875
 20
-3.88383150100708
 30
0.0
 11
3340.66259765625
 21
-6.739915370941162
 31
0.0
  0
LINE
  5
7D
330
17
100
AcDbEntity
  8
0
100
AcDbLine
 10
2515.126953125
 20
-48.039493560791016
 30
0.0
 11
2515.126953125
 21
-62.84805679321289
 31
0.0
  0
LINE
  5
7E
330
17
100
AcDbEntity
  8
0
100
AcDbLine
 10
3291.7197265625
 20
-57.78643798828125
 30
0.0
 11
3302.30029296875
 21
-74.09917449951172
 31
0.0
  0
LINE
  5
7F
330
17
100
AcDbEntity
  8
0
100
AcDbLine
 10
1784.29296875
 20
-3010.523681640625
 30
0.0
 11
1576.9990234375
 21
-3010.523681640625
 31
0.0
  0
LINE
  5
80
330
17
100
AcDbEntity
  8
0
100
AcDbLine
 10
3349.550048828125
 20
-29.630277633666992
 30
0.0
 11
3362.912109375
 21
-39.17280578613281
 31
0.0
  0
LINE
  5
81
330
17
100
AcDbEntity
  8
0
100
AcDbLine
 10
2528.15966796875
 20
-71.7033920288086
 30
0.0
 11
2511.8193359375
 21
-68.40039825439453
 31
0.0
  0
LINE
  5
82
330
17
100
AcDbEntity
  8
0
100
AcDbLine
 10
3380.6298828125
 20
-86.18281555175781
 30
0.0
 11
3361.863037109375
 21
-86.18281555175781
 31
0.0
  0
LINE
  5
83
330
17
100
AcDbEntity
  8
0
100
AcDbLine
 10
2328.83251953125
 20
-16.600210189819336
 30
0.0
 11
2331.855224609375
 21
-24.38271141052246
 31
0.0
  0
LINE
  5
84
330
17
100
AcDbEntity
  8
0
100
AcDbLine
 10
3340.631103515625
 20
-18.124204635620117
 30
0.0
 11
3340.631103515625
 21
-29.506885528564453
 31
0.0
  0
LINE
  5
85
330
17
100
AcDbEntity
  8
0
100
AcDbLine
 10
2415.5673828125
 20
-5.720571041107178
 30
0.0
 11
2424.354736328125
 21
-5.720571041107178
 31
0.0
  0
LINE
  5
86
330
17
100
AcDbEntity
  8
0
100
AcDbLine
 10
3464.107666015625
 20
-55.002403259277344
 30
0.0
 11
3442.517578125
 21
-45.80003356933594
 31
0.0
  0
LINE
  5
87
330
17
100
AcDbEntity
  8
0
100
AcDbLine
 10
3255.091064453125
 20
-72.3403091430664
 30
0.0
 11
3245.96044921875
 21
-64.00743865966797
 31
0.0
  0
LINE
  5
88
330
17
100
AcDbEntity
  8
0
100
AcDbLine
 10
2647.35791015625
 20
-26.476701736450195
 30
0.0
 11
2640.424560546875
 21
-18.071533203125
 31
0.0
  0
LINE
  5
89
330
17
100
AcDbEntity
  8
0
100
AcDbLine
 10
2545.618408203125
 20
-28.77789878845215
 30
0.0
 11
2516.85791015625
 21
-28.77789878845215
 31
0.0
  0
LINE
  5
8A
330
17
100
AcDbEntity
  8
0
100
AcDbLine
 10
3314.33349609375
 20
-62.6766471862793
 30
0.0
 11
3301.824951171875
 21
-62.6766471862793
 31
0.0
  0
LINE
  5
8B
330
17
100
AcDbEntity
  8
0
100
AcDbLine
 10
1388.2537841796875
 20
-17.93882942199707
 30
0.0
 11
1373.4305419921875
 21
-7.683319568634033
 31
0.0
  0
LINE
  5
8C
330
17
100
AcDbEntity
  8
0
100
AcDbLine
 10
3046.825439453125
 20
-30.642650604248047
 30
0.0
 11
3050.95166015625
 21
-42.20451354980469
 31
0.0
  0
LINE
  5
8D
330
17
100
AcDbEntity
  8
0
100
AcDbLine
 10
2258.1318359375
 20
-63.12269592285156
 30
0.0
 11
2254.879638671875
 21
-53.37364959716797
 31
0.0
  0
LINE
  5
8E
330
17
100
AcDbEntity
  8
0
100
AcDbLine
 10
3259.301025390625
 20
-0.6970481276512146
 30
0.0
 11
3266.092041015625
 21
-7.670156478881836
 31
0.0
  0
LINE
  5
8F
330
17
100
AcDbEntity
  8
0
100
AcDbLine
 10
1940.433349609375
 20
-6.522063732147217
 30
0.0
 11
1921.7208251953125
 21
-6.522063732147217
 31
0.0
  0
LINE
  5
90
330
17
100
AcDbEntity
  8
0
100
AcDbLine
 10
2087.0234375
 20
-23.45982551574707
 30
0.0
 11
2095.725830078125
 21
-19.60240364074707
 31
0.0
  0
LINE
  5
91
330
17
100
AcDbEntity
  8
0
100
AcDbLine
 10
2483.969970703125
 20
-23.072738647460938
 30
0.0
 11
2473.115966796875
 21
-19.401554107666016
 31
0.0
  0
LINE
  5
92
330
17
100
AcDbEntity
  8
0
100
AcDbLine
 10
2702.852294921875
 20
-5.923107624053955
 30
0.0
 11
2711.3505859375
 21
-13.69821548461914
 31
0.0
  0
LINE
  5
93
330
17
100
AcDbEntity
  8
0
100
AcDbLine
 10
2195.997314453125
 20
-11.718857765197754
 30
0.0
 11
2200.94482421875
 21
-23.515134811401367
 31
0.0
  0
LINE
  5
94
330
17
100
AcDbEntity
  8
0
100
AcDbLine
 10
2463.232421875
 20
-24.13619613647461
 30
0.0
 11
2449.459228515625
 21
-17.937673568725586
 31
0.0
  0
LINE
  5
95
330
17
100
AcDbEntity
  8
0
100
AcDbLine
 10
2889.396240234375
 20
-30.250045776367188
 30
0.0
 11
2895.423583984375
 21
-50.68437576293945
 31
0.0
  0
LINE
  5
96
330
17
100
AcDbEntity
  8
0
100
AcDbLine
 10
2504.124755859375
 20
-50.043861389160156
 30
0.0
 11
2500.235107421875
 21
-43.35164260864258
 31
0.0
  0
LINE
  5
97
330
17
100
AcDbEntity
  8
0
100
AcDbLine
 10
2455.314453125
 20
-37.09362030029297
 30
0.0
 11
2473.077392578125
 21
-40.849666595458984
 31
0.0
  0
LINE
  5
98
330
17
100
AcDbEntity
  8
0
100
AcDbLine
 10
3625.66162109375
 20
-81.16780853271484
 30
0.0
 11
3608.079345703125
 21
-81.16780853271484
 31
0.0
  0
LINE
  5
99
330
17
100
AcDbEntity
  8
0
100
AcDbLine
 10
2291.78173828125
 20
-9.654121398925781
 30
0.0
 11
2281.286376953125
 21
-6.146228313446045
 31
0.0
  0
LINE
  5
9A
330
17
100
AcDbEntity
  8
0
100
AcDbLine
 10
3685.48095703125
 20
-32.46780014038086
 30
0.0
 11
3696.677734375
 21
-35.187564849853516
 31
0.0
  0
LINE
  5
9B
330
17
100
AcDbEntity
  8
0
100
AcDbLine
 10
1698.754638671875
 20
-12.398390769958496
 30
0.0
 11
1705.5126953125
 21
-18.2546443939209
 31
0.0
  0
LINE
  5
9C
330
17
100
AcDbEntity
  8
0
100
AcDbLine
 10
2531.78662109375
 20
-15.184714317321777
 30
0.0
 11
2519.299072265625
 21
-15.184714317321777
 31
0.0
  0
LINE
  5
9D
330
17
100
AcDbEntity
  8
0
100
AcDbLine
 10
2354.387939453125
 20
-54.34919357299805
 30
0.0
 11
2343.392578125
 21
-48.84072494506836
 31
0.0
  0
LINE
  5
9E
330
17
100
AcDbEntity
  8
0
100
AcDbLine
 10
3089.561767578125
 20
-0.5574528574943542
 30
0.0
 11
3093.192626953125
 21
-10.600516319274902
 31
0.0
  0
LINE
  5
9F
330
17
100
AcDbEntity
  8
0
100
AcDbLine
 10
3194.351318359375
 20
-76.93699645996094
 30
0.0
 11
3177.828857421875
 21
-70.62732696533203
 31
0.0
  0
LINE
  5
A0
330
17
100
AcDbEntity
  8
0
100
AcDbLine
 10
2925.768798828125
 20
-7.885030746459961
 30
0.0
 11
2936.802978515625
 21
-14.495260238647461
 31
0.0
  0
LINE
  5
A1
330
17
100
AcDbEntity
  8
0
100
AcDbLine
 10
2697.81982421875
 20
-13.607471466064453
 30
0.0
 11
2689.310546875
 21
-8.226805686950684
 31
0.0
  0
LINE
  5
A2
330
17
100
AcDbEntity
  8
0
100
AcDbLine
 10
3325.799560546875
 20
-17.686742782592773
 30
0.0
 11
3334.419677734375
 21
-15.832734107971191
 31
0.0
  0
LINE
  5
A3
330
17
100
AcDbEntity
  8
0
100
AcDbLine
 10
3586.61279296875
 20
-16.663448333740234
 30
0.0
 11
3605.56103515625
 21
-29.469715118408203
 31
0.0
  0
LINE
  5
A4
330
17
100
AcDbEntity
  8
0
100
AcDbLine
 10
2418.1357421875
 20
-59.363006591796875
 30
0.0
 11
2410.277099609375
 21
-52.25997543334961
 31
0.0
  0
LINE
  5
A5
330
17
100
AcDbEntity
  8
0
100
AcDbLine
 10
2154.5361328125
 20
-22.71443748474121
 30
0.0
 11
2146.76123046875
 21
-19.665145874023438
 31
0.0
  0
LINE
  5
A6
330
17
100
AcDbEntity
  8
0
100
AcDbLine
 10
2104.007080078125
 20
-22.986125946044922
 30
0.0
 11
2120.1435546875
 21
-28.329103469848633
 31
0.0
  0
LINE
  5
A7
330
17
100
AcDbEntity
  8
0
100
AcDbLine
 10
3160.672119140625
 20
-22.691055297851562
 30
0.0
 11
3144.364990234375
 21
-22.691055297851562
 31
0.0
  0
LINE
  5
A8
330
17
100
AcDbEntity
  8
0
100
AcDbLine
 10
1980.1949462890625
 20
-28.40538787841797
 30
0.0
 11
1988.3780517578125
 21
-35.325775146484375
 31
0.0
  0
LINE
  5
A9
330
17
100
AcDbEntity
  8
0
100
AcDbLine
 10
3538.020751953125
 20
-9.831889152526855
 30
0.0
 11
3527.97314453125
 21
-7.541234493255615
 31
0.0
  0
LINE
  5
AA
330
17
100
AcDbEntity
  8
0
100
AcDbLine
 10
3298.138916015625
 20
-13.230082511901855
 30
0.0
 11
3290.442626953125
 21
-13.230082511901855
 31
0.0
  0
LINE
  5
AB
330
17
100
AcDbEntity
  8
0
100
AcDbLine
 10
2909.19287109375
 20
-30.962684631347656
 30
0.0
 11
2928.184326171875
 21
-27.172304153442383
 31
0.0
  0
LINE
  5
AC
330
17
100
AcDbEntity
  8
0
100
AcDbLine
 10
3280.73046875
 20
-42.834171295166016
 30
0.0
 11
3284.082275390625
 21
-58.45600509643555
 31
0.0
  0
LINE
  5
AD
330
17
100
AcDbEntity
  8
0
100
AcDbLine
 10
2631.464599609375
 20
-7.5439653396606445
 30
0.0
 11
2654.1455078125
 21
-21.462196350097656
 31
0.0
  0
LINE
  5
AE
330
17
100
AcDbEntity
  8
0
100
AcDbLine
 10
2768.98046875
 20
-15.470895767211914
 30
0.0
 11
2778.49462890625
 21
-21.268285751342773
 31
0.0
  0
LINE
  5
AF
330
17
100
AcDbEntity
  8
0
100
AcDbLine
 10
2607.977783203125
 20
-52.07836151123047
 30
0.0
 11
2615.869384765625
 21
-57.78705978393555
 31
0.0
  0
LINE
  5
B0
330
17
100
AcDbEntity
  8
0
100
AcDbLine
 10
2803.27734375
 20
-62.9748649597168
 30
0.0
 11
2812.590087890625
 21
-72.42005157470703
 31
0.0
  0
LINE
  5
B1
330
17
100
AcDbEntity
  8
0
100
AcDbLine
 10
1974.447021484375
 20
-0.6232054233551025
 30
0.0
 11
1984.9501953125
 21
-22.203432083129883
 31
0.0
  0
LINE
  5
B2
330
17
100
AcDbEntity
  8
0
100
AcDbLine
 10
3218.139404296875
 20
-17.05588722229004
 30
0.0
 11
3205.5205078125
 21
-17.05588722229004
 31
0.0
  0
LINE
  5
B3
330
17
100
AcDbEntity
  8
0
100
AcDbLine
 10
2852.0439453125
 20
-33.54714584350586
 30
0.0
 11
2838.353759765625
 21
-30.753652572631836
 31
0.0
  0
LINE
  5
B4
330
17
100
AcDbEntity
  8
0
100
AcDbLine
 10
2456.634033203125
 20
-12.534502029418945
 30
0.0
 11
2472.792724609375
 21
-25.15141487121582
 31
0.0
  0
LINE
  5
B5
330
17
100
AcDbEntity
  8
0
100
AcDbLine
 10
3410.7314453125
 20
-27.80750846862793
 30
0.0
 11
3423.352294921875
 21
-27.80750846862793
 31
0.0
  0
LINE
  5
B6
330
17
100
AcDbEntity
  8
0
100
AcDbLine
 10
3301.250732421875
 20
-80.17916870117188
 30
0.0
 11
3288.18115234375
 21
-61.83491516113281
 31
0.0
  0
LINE
  5
B7
330
17
100
AcDbEntity
  8
0
100
AcDbLine
 10
2291.004638671875
 20
-0.23675963282585144
 30
0.0
 11
2296.698974609375
 21
-5.805103778839111
 31
0.0
  0
LINE
  5
B8
330
17
100
AcDbEntity
  8
0
100
AcDbLine
 10
2144.309326171875
 20
-16.43208885192871
 30
0.0
 11
2155.68017578125
 21
-16.43208885192871
 31
0.0
  0
LINE
  5
B9
330
17
100
AcDbEntity
  8
0
100
AcDbLine
 10
2238.14599609375
 20
-28.112911224365234
 30
0.0
 11
2242.64111328125
 21
-35.90419387817383
 31
0.0
  0
LINE
  5
BA
330
17
100
AcDbEntity
  8
0
100
AcDbLine
 10
2654.352783203125
 20
-40.79783630371094
 30
0.0
 11
2666.96533203125
 21
-40.79783630371094
 31
0.0
  0
LINE
  5
BB
330
17
100
AcDbEntity
  8
0
100
AcDbLine
 10
3599.249755859375
 20
-40.72209167480469
 30
0.0
 11
3608.44677734375
 21
-52.59404373168945
 31
0.0
  0
LINE
  5
BC
330
17
100
AcDbEntity
  8
0
100
AcDbLine
 10
3352.847412109375
 20
-85.0582046508789
 30
0.0
 11
3346.912109375
 21
-74.87484741210938
 31
0.0
  0
LINE
  5
BD
330
17
100
AcDbEntity
  8
0
100
AcDbLine
 10
1907.63525390625
 20
-3017.138427734375
 30
0.0
 11
1900.47998046875
 21
-3014.822998046875
 31
0.0
  0
LINE
  5
BE
330
17
100
AcDbEntity
  8
0
100
AcDbLine
 10
1584.434814453125
 20
-3019.3046875
 30
0.0
 11
1515.6561279296875
 21
-3019.3046875
 31
0.0
  0
LINE
  5
BF
330
17
100
AcDbEntity
  8
0
100
AcDbLine
 10
2419.359619140625
 20
-21.62533187866211
 30
0.0
 11
2431.88916015625
 21
-21.62533187866211
 31
0.0
  0
LINE
  5
C0
330
17
100
AcDbEntity
  8
0
100
AcDbLine
 10
2876.322265625
 20
-40.02410125732422
 30
0.0
 11
2884.98828125
 21
-47.40479278564453
 31
0.0
  0
LINE
  5
C1
330
17
100
AcDbEntity
  8
0
100
AcDbLine
 10
3314.837890625
 20
-23.953126907348633
 30
0.0
 11
3307.644775390625
 21
-16.062686920166016
 31
0.0
  0
LINE
  5
C2
330
17
100
AcDbEntity
  8
0
100
AcDbLine
 10
2843.019775390625
 20
-54.90026092529297
 30
0.0
 11
2854.557861328125
 21
-57.21177673339844
 31
0.0
  0
LINE
  5
C3
330
17
100
AcDbEntity
  8
0
100
AcDbLine
 10
2325.411865234375
 20
-28.124574661254883
 30
0.0
 11
2325.411865234375
 21
-15.6245756149292
 31
0.0
  0
LINE
  5
C4
330
17
100
AcDbEntity
  8
0
100
AcDbLine
 10
2055.48291015625
 20
-52.283592224121094
 30
0.0
 11
2048.235107421875
 21
-42.74068832397461
 31
0.0
  0
LINE
  5
C5
330
17
100
AcDbEntity
  8
0
100
AcDbLine
 10
3367.0947265625
 20
-60.55628204345703
 30
0.0
 11
3371.925537109375
 21
-76.00020599365234
 31
0.0
  0
LINE
  5
C6
330
17
100
AcDbEntity
  8
0
100
AcDbLine
 10
1863.084716796875
 20
-3021.243408203125
 30
0.0
 11
1845.57763671875
 21
-3021.243408203125
 31
0.0
  0
LINE
  5
C7
330
17
100
AcDbEntity
  8
0
100
AcDbLine
 10
3282.36962890625
 20
-23.635526657104492
 30
0.0
 11
3289.94140625
 21
-34.837074279785156
 31
0.0
  0
LINE
  5
C8
330
17
100
AcDbEntity
  8
0
100
AcDbLine
 10
3022.497314453125
 20
-45.65711212158203
 30
0.0
 11
3022.497314453125
 21
-58.188262939453125
 31
0.0
  0
LINE
  5
C9
330
17
100
AcDbEntity
  8
0
100
AcDbLine
 10
3726.890869140625
 20
-50.555118560791016
 30
0.0
 11
3716.838134765625
 21
-48.28838348388672
 31
0.0
  0
LINE
  5
CA
330
17
100
AcDbEntity
  8
0
100
AcDbLine
 10
3611.872802734375
 20
-35.42820739746094
 30
0.0
 11
3595.625
 21
-35.42820739746094
 31
0.0
  0
LINE
  5
CB
330
17
100
AcDbEntity
  8
0
100
AcDbLine
 10
3544.07275390625
 20
-59.815093994140625
 30
0.0
 11
3531.495361328125
 21
-51.177734375
 31
0.0
  0
LINE
  5
CC
330
17
100
AcDbEntity
  8
0
100
AcDbLine
 10
2482.05859375
 20
-56.311920166015625
 30
0.0
 11
2498.220947265625
 21
-61.58102035522461
 31
0.0
  0
LINE
  5
CD
330
17
100
AcDbEntity
  8
0
100
AcDbLine
 10
3439.859375
 20
-32.58108901977539
 30
0.0
 11
3451.882568359375
 21
-45.61800765991211
 31
0.0
  0
LINE
  5
CE
330
17
100
AcDbEntity
  8
0
100
AcDbLine
 10
2492.189208984375
 20
-42.601566314697266
 30
0.0
 11
2476.75048828125
 21
-33.33220672607422
 31
0.0
  0
LINE
  5
CF
330
17
100
AcDbEntity
  8
0
100
AcDbLine
 10
3266.202880859375
 20
-12.124554634094238
 30
0.0
 11
3256.393310546875
 21
-6.459217548370361
 31
0.0
  0
LINE
  5
D0
330
17
100
AcDbEntity
  8
0
100
AcDbLine
 10
1733.1158447265625
 20
-22.118968963623047
 30
0.0
 11
1743.0555419921875
 21
-22.118968963623047
 31
0.0
  0
LINE
  5
D1
330
17
100
AcDbEntity
  8
0
100
AcDbLine
 10
1966.923828125
 20
-29.203031539916992
 30
0.0
 11
1955.52685546875
 21
-25.970966339111328
 31
0.0
  0
LINE
  5
D2
330
17
100
AcDbEntity
  8
0
100
AcDbLine
 10
2388.039306640625
 20
-22.089996337890625
 30
0.0
 11
2376.18212890625
 21
-17.36309814453125
 31
0.0
  0
LINE
  5
D3
330
17
100
AcDbEntity
  8
0
100
AcDbLine
 10
2476.150390625
 20
-28.197547912597656
 30
0.0
 11
2486.462646484375
 21
-32.799171447753906
 31
0.0
  0
LINE
  5
D4
330
17
100
AcDbEntity
  8
0
100
AcDbLine
 10
1320.6251220703125
 20
-3021.462890625
 30
0.0
 11
1236.8751220703125
 21
-3021.462890625
 31
0.0
  0
LINE
  5
D5
330
17
100
AcDbEntity
  8
0
100
AcDbLine
 10
3134.695068359375
 20
-21.51810646057129
 30
0.0
 11
3143.640380859375
 21
-18.313140869140625
 31
0.0
  0
LINE
  5
D6
330
17
100
AcDbEntity
  8
0
100
AcDbLine
 10
1976.89111328125
 20
-47.8857421875
 30
0.0
 11
1989.502197265625
 21
-47.8857421875
 31
0.0
  0
LINE
  5
D7
330
17
100
AcDbEntity
  8
0
100
AcDbLine
 10
2986.990478515625
 20
-26.924697875976562
 30
0.0
 11
2982.576904296875
 21
-37.17717742919922
 31
0.0
  0
LINE
  5
D8
330
17
100
AcDbEntity
  8
0
100
AcDbLine
 10
3166.767333984375
 20
-78.82039642333984
 30
0.0
 11
3179.514892578125
 21
-76.34553527832031
 31
0.0
  0
LINE
  5
D9
330
17
100
AcDbEntity
  8
0
100
AcDbLine
 10
2974.375244140625
 20
-0.5660607218742371
 30
0.0
 11
2974.375244140625
 21
-13.155939102172852
 31
0.0
  0
LINE
  5
DA
330
17
100
AcDbEntity
  8
0
100
AcDbLine
 10
2279.7451171875
 20
-12.121628761291504
 30
0.0
 11
2284.241943359375
 21
-28.16228485107422
 31
0.0
  0
LINE
  5
DB
330
17
100
AcDbEntity
  8
0
100
AcDbLine
 10
3376.909912109375
 20
-20.35430335998535
 30
0.0
 11
3396.89990234375
 21
-20.35430335998535
 31
0.0
  0
LINE
  5
DC
330
17
100
AcDbEntity
  8
0
100
AcDbLine
 10
2036.0224609375
 20
-38.52986526489258
 30
0.0
 11
2043.608154296875
 21
-42.09778594970703
 31
0.0
  0
LINE
  5
DD
330
17
100
AcDbEntity
  8
0
100
AcDbLine
 10
2889.09814453125
 20
-67.0417251586914
 30
0.0
 11
2895.735107421875
 21
-78.05872344970703
 31
0.0
  0
LINE
  5
DE
330
17
100
AcDbEntity
  8
0
100
AcDbLine
 10
2199.9033203125
 20
-3017.521240234375
 30
0.0
 11
2192.216552734375
 21
-3008.938720703125
 31
0.0
  0
LINE
  5
DF
330
17
100
AcDbEntity
  8
0
100
AcDbLine
 10
1530.6484375
 20
-3020.392822265625
 30
0.0
 11
1436.9019775390625
 21
-3020.392822265625
 31
0.0
  0
LINE
  5
E0
330
17
100
AcDbEntity
  8
0
100
AcDbLine
 10
3240.095703125
 20
-30.77688217163086
 30
0.0
 11
3231.112548828125
 21
-24.88212776184082
 31
0.0
  0
LINE
  5
E1
330
17
100
AcDbEntity
  8
0
100
AcDbLine
 10
2414.2353515625
 20
-48.25178146362305
 30
0.0
 11
2421.975341796875
 21
-56.78398132324219
 31
0.0
  0
LINE
  5
E2
330
17
100
AcDbEntity
  8
0
100
AcDbLine
 10
2890.17333984375
 20
-48.240108489990234
 30
0.0
 11
2892.044921875
 21
-55.58171844482422
 31
0.0
  0
LINE
  5
E3
330
17
100
AcDbEntity
  8
0
100
AcDbLine
 10
3199.38671875
 20
-24.123184204101562
 30
0.0
 11
3185.6083984375
 21
-24.123184204101562
 31
0.0
  0
LINE
  5
E4
330
17
100
AcDbEntity
  8
0
100
AcDbLine
 10
3654.47412109375
 20
-15.555970191955566
 30
0.0
 11
3663.1240234375
 21
-24.403818130493164
 31
0.0
  0
LINE
  5
E5
330
17
100
AcDbEntity
  8
0
100
AcDbLine
 10
1816.7982177734375
 20
-42.29479217529297
 30
0.0
 11
1831.9765625
 21
-45.069671630859375
 31
0.0
  0
LINE
  5
E6
330
17
100
AcDbEntity
  8
0
100
AcDbLine
 10
3515.0380859375
 20
-31.145729064941406
 30
0.0
 11
3500.79296875
 21
-26.3737850189209
 31
0.0
  0
LINE
  5
E7
330
17
100
AcDbEntity
  8
0
100
AcDbLine
 10
3695.240478515625
 20
-36.78157424926758
 30
0.0
 11
3695.240478515625
 21
-48.16875457763672
 31
0.0
  0
LINE
  5
E8
330
17
100
AcDbEntity
  8
0
100
AcDbLine
 10
3313.140625
 20
-47.58795166015625
 30
0.0
 11
3295.58251953125
 21
-47.58795166015625
 31
0.0
  0
LINE
  5
E9
330
17
100
AcDbEntity
  8
0
100
AcDbLine
 10
3343.24267578125
 20
-46.81838607788086
 30
0.0
 11
3348.576416015625
 21
-57.9078483581543
 31
0.0
  0
LINE
  5
EA
330
17
100
AcDbEntity
  8
0
100
AcDbLine
 10
2705.625
 20
-75.16426086425781
 30
0.0
 11
2694.375
 21
-75.16426086425781
 31
0.0
  0
LINE
  5
EB
330
17
100
AcDbEntity
  8
0
100
AcDbLine
 10
2502.873779296875
 20
-16.128328323364258
 30
0.0
 11
2507.663330078125
 21
-22.53563690185547
 31
0.0
  0
LINE
  5
EC
330
17
100
AcDbEntity
  8
0
100
AcDbLine
 10
3639.830322265625
 20
-67.25345611572266
 30
0.0
 11
3622.4921875
 21
-58.19399642944336
 31
0.0
  0
LINE
  5
ED
330
17
100
AcDbEntity
  8
0
100
AcDbLine
 10
3120.907470703125
 20
-20.52259063720703
 30
0.0
 11
3117.4140625
 21
-10.882694244384766
 31
0.0
  0
LINE
  5
EE
330
17
100
AcDbEntity
  8
0
100
AcDbLine
 10
3114.316650390625
 20
-37.048404693603516
 30
0.0
 11
3123.30908203125
 21
-40.07838439941406
 31
0.0
  0
LINE
  5
EF
330
17
100
AcDbEntity
  8
0
100
AcDbLine
 10
3207.649169921875
 20
-59.35039520263672
 30
0.0
 11
3194.4716796875
 21
-55.30982971191406
 31
0.0
  0
LINE
  5
F0
330
17
100
AcDbEntity
  8
0
100
AcDbLine
 10
3663.013916015625
 20
-5.9667277336120605
 30
0.0
 11
3651.736572265625
 21
-2.3011746406555176
 31
0.0
  0
LINE
  5
F1
330
17
100
AcDbEntity
  8
0
100
AcDbLine
 10
2220.562255859375
 20
-44.69580078125
 30
0.0
 11
2228.5361328125
 21
-38.66890335083008
 31
0.0
  0
LINE
  5
F2
330
17
100
AcDbEntity
  8
0
100
AcDbLine
 10
3362.874755859375
 20
-40.3089599609375
 30
0.0
 11
3373.015380859375
 21
-40.3089599609375
 31
0.0
  0
LINE
  5
F3
330
17
100
AcDbEntity
  8
0
100
AcDbLine
 10
2492.1083984375
 20
-2.9633820056915283
 30
0.0
 11
2492.1083984375
 21
-14.4851713180542
 31
0.0
  0
LINE
  5
F4
330
17
100
AcDbEntity
  8
0
100
AcDbLine
 10
1987.691650390625
 20
-39.31521987915039
 30
0.0
 11
1977.656494140625
 21
-35.66196823120117
 31
0.0
  0
LINE
  5
F5
330
17
100
AcDbEntity
  8
0
100
AcDbLine
 10
1938.9803466796875
 20
-33.485225677490234
 30
0.0
 11
1931.837158203125
 21
-25.659500122070312
 31
0.0
  0
LINE
  5
F6
330
17
100
AcDbEntity
  8
0
100
AcDbLine
 10
3200.40625
 20
-40.18063735961914
 30
0.0
 11
3229.228759765625
 21
-40.18063735961914
 31
0.0
  0
LINE
  5
F7
330
17
100
AcDbEntity
  8
0
100
AcDbLine
 10
2152.769775390625
 20
-50.53708267211914
 30
0.0
 11
2164.10693359375
 21
-54.00235366821289
 31
0.0
  0
LINE
  5
F8
330
17
100
AcDbEntity
  8
0
100
AcDbLine
 10
2163.8681640625
 20
-60.565670013427734
 30
0.0
 11
2153.621826171875
 21
-54.74961853027344
 31
0.0
  0
LINE
  5
F9
330
17
100
AcDbEntity
  8
0
100
AcDbLine
 10
2438.835205078125
 20
-64.34424591064453
 30
0.0
 11
2430.0224609375
 21
-59.457340240478516
 31
0.0
  0
LINE
  5
FA
330
17
100
AcDbEntity
  8
0
100
AcDbLine
 10
2811.024169921875
 20
-77.7270736694336
 30
0.0
 11
2798.542236328125
 21
-65.2090835571289
 31
0.0
  0
LINE
  5
FB
330
17
100
AcDbEntity
  8
0
100
AcDbLine
 10
1293.1748046875
 20
-26.832216262817383
 30
0.0
 11
1279.30810546875
 21
-10.682452201843262
 31
0.0
  0
LINE
  5
FC
330
17
100
AcDbEntity
  8
0
100
AcDbLine
 10
3446.682373046875
 20
-47.171730041503906
 30
0.0
 11
3438.3466796875
 21
-37.92513656616211
 31
0.0
  0
LINE
  5
FD
330
17
100
AcDbEntity
  8
0
100
AcDbLine
 10
2954.57958984375
 20
-22.910493850708008
 30
0.0
 11
2951.967041015625
 21
-35.64387893676758
 31
0.0
  0
LINE
  5
FE
330
17
100
AcDbEntity
  8
0
100
AcDbLine
 10
1914.6300048828125
 20
-26.62834358215332
 30
0.0
 11
1903.076416015625
 21
-26.62834358215332
 31
0.0
  0
LINE
  5
FF
330
17
100
AcDbEntity
  8
0
100
AcDbLine
 10
2279.323974609375
 20
-44.61969757080078
 30
0.0
 11
2265.39794921875
 21
-41.71236801147461
 31
0.0
  0
LINE
  5
100
330
17
100
AcDbEntity
  8
0
100
AcDbLine
 10
3510.697265625
 20
-16.779462814331055
 30
0.0
 11
3501.525390625
 21
-9.83692741394043
 31
0.0
  0
LINE
  5
101
330
17
100
AcDbEntity
  8
0
100
AcDbLine
 10
1822.19189453125
 20
-7.583066940307617
 30
0.0
 11
1819.7415771484375
 21
-0.49823278188705444
 31
0.0
  0
LINE
  5
102
330
17
100
AcDbEntity
  8
0
100
AcDbLine
 10
3263.02490234375
 20
-22.693462371826172
 30
0.0
 11
3272.877685546875
 21
-22.693462371826172
 31
0.0
  0
LINE
  5
103
330
17
100
AcDbEntity
  8
0
100
AcDbLine
 10
1426.9053955078125
 20
-26.950454711914062
 30
0.0
 11
1406.82177734375
 21
-26.950454711914062
 31
0.0
  0
LINE
  5
104
330
17
100
AcDbEntity
  8
0
100
AcDbLine
 10
2512.46435546875
 20
-55.96784973144531
 30
0.0
 11
2504.334716796875
 21
-50.686920166015625
 31
0.0
  0
LINE
  5
105
330
17
100
AcDbEntity
  8
0
100
AcDbLine
 10
3424.3056640625
 20
-68.6159439086914
 30
0.0
 11
3434.5625
 21
-68.6159439086914
 31
0.0
  0
LINE
  5
106
330
17
100
AcDbEntity
  8
0
100
AcDbLine
 10
3105.19091796875
 20
-16.82442855834961
 30
0.0
 11
3105.19091796875
 21
-8.19154167175293
 31
0.0
  0
LINE
  5
107
330
17
100
AcDbEntity
  8
0
100
AcDbLine
 10
3245.986083984375
 20
-14.740077018737793
 30
0.0
 11
3254.799072265625
 21
-18.3356876373291
 31
0.0
  0
LINE
  5
108
330
17
100
AcDbEntity
  8
0
100
AcDbLine
 10
3049.408935546875
 20
-16.877647399902344
 30
0.0
 11
3049.408935546875
 21
-27.963075637817383
 31
0.0
  0
LINE
  5
109
330
17
100
AcDbEntity
  8
0
100
AcDbLine
 10
1755.7626953125
 20
-36.23121643066406
 30
0.0
 11
1749.6279296875
 21
-23.007646560668945
 31
0.0
  0
LINE
  5
10A
330
17
100
AcDbEntity
  8
0
100
AcDbLine
 10
3088.322998046875
 20
-50.248592376708984
 30
0.0
 11
3074.436767578125
 21
-53.397159576416016
 31
0.0
  0
LINE
  5
10B
330
17
100
AcDbEntity
  8
0
100
AcDbLine
 10
3301.725341796875
 20
-56.163177490234375
 30
0.0
 11
3311.97509765625
 21
-59.01521301269531
 31
0.0
  0
LINE
  5
10C
330
17
100
AcDbEntity
  8
0
100
AcDbLine
 10
3506.628173828125
 20
-2500.59423828125
 30
0.0
 11
3506.628173828125
 21
-2516.903076171875
 31
0.0
  0
LINE
  5
10D
330
17
100
AcDbEntity
  8
0
100
AcDbLine
 10
2304.796630859375
 20
-3015.0908203125
 30
0.0
 11
2299.03271484375
 21
-3008.4208984375
 31
0.0
  0
LINE
  5
10E
330
17
100
AcDbEntity
  8
0
100
AcDbLine
 10
3755.791015625
 20
-33.84440612792969
 30
0.0
 11
3733.158935546875
 21
-26.76616096496582
 31
0.0
  0
LINE
  5
10F
330
17
100
AcDbEntity
  8
0
100
AcDbLine
 10
2007.8223876953125
 20
-27.49350357055664
 30
0.0
 11
2017.8651123046875
 21
-32.40618896484375
 31
0.0
  0
LINE
  5
110
330
17
100
AcDbEntity
  8
0
100
AcDbLine
 10
3746.767578125
 20
-43.981285095214844
 30
0.0
 11
3753.058837890625
 21
-53.95524597167969
 31
0.0
  0
LINE
  5
111
330
17
100
AcDbEntity
  8
0
100
AcDbLine
 10
2509.477783203125
 20
-10.450540542602539
 30
0.0
 11
2502.650634765625
 21
-6.430377960205078
 31
0.0
  0
LINE
  5
112
330
17
100
AcDbEntity
  8
0
100
AcDbLine
 10
3366.29052734375
 20
-74.53326416015625
 30
0.0
 11
3362.5654296875
 21
-60.77655029296875
 31
0.0
  0
LINE
  5
113
330
17
100
AcDbEntity
  8
0
100
AcDbLine
 10
2447.090087890625
 20
-67.50244903564453
 30
0.0
 11
2438.887939453125
 21
-64.66770935058594
 31
0.0
  0
LINE
  5
114
330
17
100
AcDbEntity
  8
0
100
AcDbLine
 10
2781.281005859375
 20
-16.841739654541016
 30
0.0
 11
2772.29541015625
 21
-12.247969627380371
 31
0.0
  0
LINE
  5
115
330
17
100
AcDbEntity
  8
0
100
AcDbLine
 10
2812.99365234375
 20
-43.54384231567383
 30
0.0
 11
2823.135498046875
 21
-43.54384231567383
 31
0.0
  0
LINE
  5
116
330
17
100
AcDbEntity
  8
0
100
AcDbLine
 10
3297.930908203125
 20
-2.7693839073181152
 30
0.0
 11
3313.033203125
 21
-6.047851085662842
 31
0.0
  0
LINE
  5
117
330
17
100
AcDbEntity
  8
0
100
AcDbLine
 10
2352.82470703125
 20
-10.808316230773926
 30
0.0
 11
2342.070068359375
 21
-6.399237632751465
 31
0.0
  0
LINE
  5
118
330
17
100
AcDbEntity
  8
0
100
AcDbLine
 10
2573.356201171875
 20
-15.306517601013184
 30
0.0
 11
2584.24560546875
 21
-12.60375690460205
 31
0.0
  0
LINE
  5
119
330
17
100
AcDbEntity
  8
0
100
AcDbLine
 10
3394.582763671875
 20
-15.968155860900879
 30
0.0
 11
3378.28369140625
 21
-15.968155860900879
 31
0.0
  0
LINE
  5
11A
330
17
100
AcDbEntity
  8
0
100
AcDbLine
 10
3479.847900390625
 20
-33.719337463378906
 30
0.0
 11
3489.391845703125
 21
-40.60178756713867
 31
0.0
  0
LINE
  5
11B
330
17
100
AcDbEntity
  8
0
100
AcDbLine
 10
3160.40869140625
 20
-82.1568603515625
 30
0.0
 11
3144.932373046875
 21
-70.2772445678711
 31
0.0
  0
LINE
  5
11C
330
17
100
AcDbEntity
  8
0
100
AcDbLine
 10
2603.08154296875
 20
-46.71586990356445
 30
0.0
 11
2576.823486328125
 21
-46.71586990356445
 31
0.0
  0
LINE
  5
11D
330
17
100
AcDbEntity
  8
0
100
AcDbLine
 10
3181.7275390625
 20
-81.14155578613281
 30
0.0
 11
3166.826904296875
 21
-84.13587188720703
 31
0.0
  0
LINE
  5
11E
330
17
100
AcDbEntity
  8
0
100
AcDbLine
 10
2464.912841796875
 20
-2.763993978500366
 30
0.0
 11
2454.82421875
 21
-8.867377281188965
 31
0.0
  0
LINE
  5
11F
330
17
100
AcDbEntity
  8
0
100
AcDbLine
 10
3554.220458984375
 20
-28.064725875854492
 30
0.0
 11
3570.8291015625
 21
-28.064725875854492
 31
0.0
  0
LINE
  5
120
330
17
100
AcDbEntity
  8
0
100
AcDbLine
 10
2880.8427734375
 20
-29.431468963623047
 30
0.0
 11
2870.5029296875
 21
-27.543869018554688
 31
0.0
  0
LINE
  5
121
330
17
100
AcDbEntity
  8
0
100
AcDbLine
 10
2503.935546875
 20
-32.25837326049805
 30
0.0
 11
2506.093505859375
 21
-41.768707275390625
 31
0.0
  0
LINE
  5
122
330
17
100
AcDbEntity
  8
0
100
AcDbLine
 10
2907.70458984375
 20
-39.45379638671875
 30
0.0
 11
2899.762451171875
 21
-33.82790756225586
 31
0.0
  0
LINE
  5
123
330
17
100
AcDbEntity
  8
0
100
AcDbLine
 10
2859.184814453125
 20
-52.705108642578125
 30
0.0
 11
2846.4921875
 21
-49.795379638671875
 31
0.0
  0
LINE
  5
124
330
17
100
AcDbEntity
  8
0
100
AcDbLine
 10
3054.13134765625
 20
-68.57170867919922
 30
0.0
 11
3044.631103515625
 21
-56.670475006103516
 31
0.0
  0
LINE
  5
125
330
17
100
AcDbEntity
  8
0
100
AcDbLine
 10
3601.787353515625
 20
-73.98273468017578
 30
0.0
 11
3629.130126953125
 21
-73.98273468017578
 31
0.0
  0
LINE
  5
126
330
17
100
AcDbEntity
  8
0
100
AcDbLine
 10
3519.3662109375
 20
-88.14163208007812
 30
0.0
 11
3505.4814453125
 21
-80.90029907226562
 31
0.0
  0
LINE
  5
127
330
17
100
AcDbEntity
  8
0
100
AcDbLine
 10
3261.953857421875
 20
-33.87696075439453
 30
0.0
 11
3267.4990234375
 21
-48.6725959777832
 31
0.0
  0
LINE
  5
128
330
17
100
AcDbEntity
  8
0
100
AcDbLine
 10
1465.577392578125
 20
-36.970821380615234
 30
0.0
 11
1443.0538330078125
 21
-25.76796531677246
 31
0.0
  0
LINE
  5
129
330
17
100
AcDbEntity
  8
0
100
AcDbLine
 10
3574.020263671875
 20
-48.34663009643555
 30
0.0
 11
3560.626708984375
 21
-36.687103271484375
 31
0.0
  0
LINE
  5
12A
330
17
100
AcDbEntity
  8
0
100
AcDbLine
 10
2720.2294921875
 20
-8.800357818603516
 30
0.0
 11
2709.126220703125
 21
-2.299751043319702
 31
0.0
  0
LINE
  5
12B
330
17
100
AcDbEntity
  8
0
100
AcDbLine
 10
2303.6650390625
 20
-12.105535507202148
 30
0.0
 11
2306.950927734375
 21
-4.407421112060547
 31
0.0
  0
LINE
  5
12C
330
17
100
AcDbEntity
  8
0
100
AcDbLine
 10
2249.246337890625
 20
-22.607131958007812
 30
0.0
 11
2260.585205078125
 21
-22.607131958007812
 31
0.0
  0
LINE
  5
12D
330
17
100
AcDbEntity
  8
0
100
AcDbLine
 10
3387.423828125
 20
-39.3204231262207
 30
0.0
 11
3387.423828125
 21
-51.94419479370117
 31
0.0
  0
LINE
  5
12E
330
17
100
AcDbEntity
  8
0
100
AcDbLine
 10
2065.840576171875
 20
-51.94904327392578
 30
0.0
 11
2055.504150390625
 21
-51.94904327392578
 31
0.0
  0
LINE
  5
12F
330
17
100
AcDbEntity
  8
0
100
AcDbLine
 10
3132.32568359375
 20
-81.5808334350586
 30
0.0
 11
3125.681640625
 21
-71.4040298461914
 31
0.0
  0
LINE
  5
130
330
17
100
AcDbEntity
  8
0
100
AcDbLine
 10
1439.737548828125
 20
-17.530223846435547
 30
0.0
 11
1426.3787841796875
 21
-9.388320922851562
 31
0.0
  0
LINE
  5
131
330
17
100
AcDbEntity
  8
0
100
AcDbLine
 10
3109.886474609375
 20
-10.380631446838379
 30
0.0
 11
3116.62841796875
 21
-24.49277687072754
 31
0.0
  0
LINE
  5
132
330
17
100
AcDbEntity
  8
0
100
AcDbLine
 10
2550.892822265625
 20
-27.78779411315918
 30
0.0
 11
2561.284912109375
 21
-36.04438400268555
 31
0.0
  0
LINE
  5
133
330
17
100
AcDbEntity
  8
0
100
AcDbLine
 10
2506.957275390625
 20
-1.599344253540039
 30
0.0
 11
2531.162841796875
 21
-8.822785377502441
 31
0.0
  0
LINE
  5
134
330
17
100
AcDbEntity
  8
0
100
AcDbLine
 10
2854.336181640625
 20
-63.623390197753906
 30
0.0
 11
2844.396240234375
 21
-63.623390197753906
 31
0.0
  0
LINE
  5
135
330
17
100
AcDbEntity
  8
0
100
AcDbLine
 10
2566.893310546875
 20
-3021.333740234375
 30
0.0
 11
2539.382568359375
 21
-3021.333740234375
 31
0.0
  0
LINE
  5
136
330
17
100
AcDbEntity
  8
0
100
AcDbLine
 10
3505.900146484375
 20
-8.757349014282227
 30
0.0
 11
3517.146240234375
 21
-13.766215324401855
 31
0.0
  0
LINE
  5
137
330
17
100
AcDbEntity
  8
0
100
AcDbLine
 10
2607.77001953125
 20
-19.946470260620117
 30
0.0
 11
2597.7529296875
 21
-13.723779678344727
 31
0.0
  0
LINE
  5
138
330
17
100
AcDbEntity
  8
0
100
AcDbLine
 10
1412.00341796875
 20
-18.93355369567871
 30
0.0
 11
1425.686279296875
 21
-22.91443634033203
 31
0.0
  0
LINE
  5
139
330
17
100
AcDbEntity
  8
0
100
AcDbLine
 10
3023.115966796875
 20
-32.40000915527344
 30
0.0
 11
3031.86328125
 21
-32.40000915527344
 31
0.0
  0
LINE
  5
13A
330
17
100
AcDbEntity
  8
0
100
AcDbLine
 10
2256.732177734375
 20
-49.45637512207031
 30
0.0
 11
2262.5673828125
 21
-59.6928596496582
 31
0.0
  0
LINE
  5
13B
330
17
100
AcDbEntity
  8
0
100
AcDbLine
 10
3619.06591796875
 20
-48.64797592163086
 30
0.0
 11
3642.311279296875
 21
-62.38672637939453
 31
0.0
  0
LINE
  5
13C
330
17
100
AcDbEntity
  8
0
100
AcDbLine
 10
2809.84326171875
 20
-53.91255187988281
 30
0.0
 11
2823.5078125
 21
-67.746826171875
 31
0.0
  0
LINE
  5
13D
330
17
100
AcDbEntity
  8
0
100
AcDbLine
 10
1917.980224609375
 20
-13.957775115966797
 30
0.0
 11
1936.8995361328125
 21
-13.957775115966797
 31
0.0
  0
LINE
  5
13E
330
17
100
AcDbEntity
  8
0
100
AcDbLine
 10
2333.72900390625
 20
-22.371200561523438
 30
0.0
 11
2346.3720703125
 21
-32.50255584716797
 31
0.0
  0
LINE
  5
13F
330
17
100
AcDbEntity
  8
0
100
AcDbLine
 10
3442.651123046875
 20
-61.6638298034668
 30
0.0
 11
3439.94580078125
 21
-51.71969223022461
 31
0.0
  0
LINE
  5
140
330
17
100
AcDbEntity
  8
0
100
AcDbLine
 10
3175.47119140625
 20
-0.6718432307243347
 30
0.0
 11
3180.667236328125
 21
-17.731435775756836
 31
0.0
  0
LINE
  5
141
330
17
100
AcDbEntity
  8
0
100
AcDbLine
 10
2704.234375
 20
-32.53547668457031
 30
0.0
 11
2698.493896484375
 21
-20.449737548828125
 31
0.0
  0
LINE
  5
142
330
17
100
AcDbEntity
  8
0
100
AcDbLine
 10
3682.00634765625
 20
-40.642879486083984
 30
0.0
 11
3664.176025390625
 21
-40.642879486083984
 31
0.0
  0
LINE
  5
143
330
17
100
AcDbEntity
  8
0
100
AcDbLine
 10
1744.087890625
 20
-22.633527755737305
 30
0.0
 11
1748.9227294921875
 21
-32.105857849121094
 31
0.0
  0
LINE
  5
144
330
17
100
AcDbEntity
  8
0
100
AcDbLine
 10
3240.480224609375
 20
-18.20347023010254
 30
0.0
 11
3235.397216796875
 21
-8.821206092834473
 31
0.0
  0
LINE
  5
145
330
17
100
AcDbEntity
  8
0
100
AcDbLine
 10
1972.179931640625
 20
-36.01327896118164
 30
0.0
 11
1963.524658203125
 21
-14.947216987609863
 31
0.0
  0
LINE
  5
146
330
17
100
AcDbEntity
  8
0
100
AcDbLine
 10
2659.422607421875
 20
-8.885108947753906
 30
0.0
 11
2673.16455078125
 21
-8.885108947753906
 31
0.0
  0
LINE
  5
147
330
17
100
AcDbEntity
  8
0
100
AcDbLine
 10
3566.08984375
 20
-17.94686508178711
 30
0.0
 11
3559.125
 21
-9.583173751831055
 31
0.0
  0
LINE
  5
148
330
17
100
AcDbEntity
  8
0
100
AcDbLine
 10
2760.807373046875
 20
-34.43882369995117
 30
0.0
 11
2739.278076171875
 21
-34.43882369995117
 31
0.0
  0
LINE
  5
149
330
17
100
AcDbEntity
  8
0
100
AcDbLine
 10
3404.520263671875
 20
-68.93212890625
 30
0.0
 11
3394.381103515625
 21
-65.60663604736328
 31
0.0
  0
LINE
  5
14A
330
17
100
AcDbEntity
  8
0
100
AcDbLine
 10
2173.26123046875
 20
-24.891193389892578
 30
0.0
 11
2156.8798828125
 21
-21.8485050201416
 31
0.0
  0
LINE
  5
14B
330
17
100
AcDbEntity
  8
0
100
AcDbLine
 10
2044.884765625
 20
-34.73090744018555
 30
0.0
 11
2032.6298828125
 21
-27.743406295776367
 31
0.0
  0
LINE
  5
14C
330
17
100
AcDbEntity
  8
0
100
AcDbLine
 10
2932.96533203125
 20
-24.51947784423828
 30
0.0
 11
2923.430908203125
 21
-13.97906494140625
 31
0.0
  0
LINE
  5
14D
330
17
100
AcDbEntity
  8
0
100
AcDbLine
 10
3144.93017578125
 20
-41.790870666503906
 30
0.0
 11
3161.868408203125
 21
-51.88588333129883
 31
0.0
  0
LINE
  5
14E
330
17
100
AcDbEntity
  8
0
100
AcDbLine
 10
2566.34912109375
 20
-43.709266662597656
 30
0.0
 11
2583.40576171875
 21
-59.063053131103516
 31
0.0
  0
LINE
  5
14F
330
17
100
AcDbEntity
  8
0
100
AcDbLine
 10
2533.558837890625
 20
-57.75138854980469
 30
0.0
 11
2523.289794921875
 21
-55.00814437866211
 31
0.0
  0
LINE
  5
150
330
17
100
AcDbEntity
  8
0
100
AcDbLine
 10
3615.82275390625
 20
-20.366357803344727
 30
0.0
 11
3605.29052734375
 21
-12.312463760375977
 31
0.0
  0
LINE
  5
151
330
17
100
AcDbEntity
  8
0
100
AcDbLine
 10
3596.872314453125
 20
-30.628631591796875
 30
0.0
 11
3580.64990234375
 21
-18.866670608520508
 31
0.0
  0
LINE
  5
152
330
17
100
AcDbEntity
  8
0
100
AcDbLine
 10
3662.181396484375
 20
-31.57724952697754
 30
0.0
 11
3646.774169921875
 21
-15.7229585647583
 31
0.0
  0
LINE
  5
153
330
17
100
AcDbEntity
  8
0
100
AcDbLine
 10
2435.99072265625
 20
-55.972694396972656
 30
0.0
 11
2448.73681640625
 21
-63.02791213989258
 31
0.0
  0
LINE
  5
154
330
17
100
AcDbEntity
  8
0
100
AcDbLine
 10
3120.23095703125
 20
-73.94112396240234
 30
0.0
 11
3110.653076171875
 21
-69.31661987304688
 31
0.0
  0
LINE
  5
155
330
17
100
AcDbEntity
  8
0
100
AcDbLine
 10
1533.6865234375
 20
-0.811492383480072
 30
0.0
 11
1543.5709228515625
 21
-6.0303239822387695
 31
0.0
  0
LINE
  5
156
330
17
100
AcDbEntity
  8
0
100
AcDbLine
 10
2257.00341796875
 20
-41.88035202026367
 30
0.0
 11
2257.00341796875
 21
-30.545787811279297
 31
0.0
  0
LINE
  5
157
330
17
100
AcDbEntity
  8
0
100
AcDbLine
 10
2690.373046875
 20
-32.653709411621094
 30
0.0
 11
2706.148681640625
 21
-37.75623321533203
 31
0.0
  0
LINE
  5
158
330
17
100
AcDbEntity
  8
0
100
AcDbLine
 10
1909.8306884765625
 20
-49.59834289550781
 30
0.0
 11
1895.5628662109375
 21
-43.26499557495117
 31
0.0
  0
LINE
  5
159
330
17
100
AcDbEntity
  8
0
100
AcDbLine
 10
3515.28955078125
 20
-49.1100959777832
 30
0.0
 11
3528.397705078125
 21
-53.57408905029297
 31
0.0
  0
LINE
  5
15A
330
17
100
AcDbEntity
  8
0
100
AcDbLine
 10
3323.06884765625
 20
-62.58145523071289
 30
0.0
 11
3335.687744140625
 21
-62.58145523071289
 31
0.0
  0
LINE
  5
15B
330
17
100
AcDbEntity
  8
0
100
AcDbLine
 10
3245.3515625
 20
-17.140108108520508
 30
0.0
 11
3245.3515625
 21
-29.46537971496582
 31
0.0
  0
LINE
  5
15C
330
17
100
AcDbEntity
  8
0
100
AcDbLine
 10
1747.920166015625
 20
-35.006675720214844
 30
0.0
 11
1752.8232421875
 21
-46.29878234863281
 31
0.0
  0
LINE
  5
15D
330
17
100
AcDbEntity
  8
0
100
AcDbLine
 10
2471.75390625
 20
-40.221614837646484
 30
0.0
 11
2483.03369140625
 21
-56.45085906982422
 31
0.0
  0
LINE
  5
15E
330
17
100
AcDbEntity
  8
0
100
AcDbLine
 10
2297.4736328125
 20
-5.661913871765137
 30
0.0
 11
2297.4736328125
 21
-18.121883392333984
 31
0.0
  0
LINE
  5
15F
330
17
100
AcDbEntity
  8
0
100
AcDbLine
 10
1196.8768310546875
 20
-14.304824829101562
 30
0.0
 11
1208.15234375
 21
-14.304824829101562
 31
0.0
  0
LINE
  5
160
330
17
100
AcDbEntity
  8
0
100
AcDbLine
 10
3122.948974609375
 20
-34.70393371582031
 30
0.0
 11
3122.948974609375
 21
-20.704504013061523
 31
0.0
  0
LINE
  5
161
330
17
100
AcDbEntity
  8
0
100
AcDbLine
 10
2510.328857421875
 20
-27.63604736328125
 30
0.0
 11
2498.072998046875
 21
-27.63604736328125
 31
0.0
  0
LINE
  5
162
330
17
100
AcDbEntity
  8
0
100
AcDbLine
 10
2500.62548828125
 20
-68.13352966308594
 30
0.0
 11
2485.60546875
 21
-68.13352966308594
 31
0.0
  0
LINE
  5
163
330
17
100
AcDbEntity
  8
0
100
AcDbLine
 10
3430.70068359375
 20
-72.32080078125
 30
0.0
 11
3415.2958984375
 21
-72.32080078125
 31
0.0
  0
LINE
  5
164
330
17
100
AcDbEntity
  8
0
100
AcDbLine
 10
3314.109375
 20
-81.99242401123047
 30
0.0
 11
3301.595947265625
 21
-79.56069946289062
 31
0.0
  0
LINE
  5
165
330
17
100
AcDbEntity
  8
0
100
AcDbLine
 10
2515.807373046875
 20
-26.39545440673828
 30
0.0
 11
2535.025634765625
 21
-21.84438705444336
 31
0.0
  0
LINE
  5
166
330
17
100
AcDbEntity
  8
0
100
AcDbLine
 10
2989.664794921875
 20
-38.400272369384766
 30
0.0
 11
2991.080078125
 21
-30.4829158782959
 31
0.0
  0
LINE
  5
167
330
17
100
AcDbEntity
  8
0
100
AcDbLine
 10
2929.50537109375
 20
-59.43184280395508
 30
0.0
 11
2925.701416015625
 21
-68.15836334228516
 31
0.0
  0
LINE
  5
168
330
17
100
AcDbEntity
  8
0
100
AcDbLine
 10
3557.988037109375
 20
-88.78357696533203
 30
0.0
 11
3543.36083984375
 21
-85.74153137207031
 31
0.0
  0
LINE
  5
169
330
17
100
AcDbEntity
  8
0
100
AcDbLine
 10
1955.62353515625
 20
-3015.67333984375
 30
0.0
 11
1943.0970458984375
 21
-3015.67333984375
 31
0.0
  0
LINE
  5
16A
330
17
100
AcDbEntity
  8
0
100
AcDbLine
 10
2445.54833984375
 20
-8.27344036102295
 30
0.0
 11
2433.6376953125
 21
-2.13104248046875
 31
0.0
  0
LINE
  5
16B
330
17
100
AcDbEntity
  8
0
100
AcDbLine
 10
3798.164306640625
 20
-8.682433128356934
 30
0.0
 11
3770.54052734375
 21
-8.682433128356934
 31
0.0
  0
LINE
  5
16C
330
17
100
AcDbEntity
  8
0
100
AcDbLine
 10
1994.7921142578125
 20
-46.38998794555664
 30
0.0
 11
1986.672119140625
 21
-39.40730285644531
 31
0.0
  0
LINE
  5
16D
330
17
100
AcDbEntity
  8
0
100
AcDbLine
 10
3383.095703125
 20
-62.7467041015625
 30
0.0
 11
3386.1171875
 21
-72.49716186523438
 31
0.0
  0
LINE
  5
16E
330
17
100
AcDbEntity
  8
0
100
AcDbLine
 10
1538.2786865234375
 20
-9.165262222290039
 30
0.0
 11
1525.97412109375
 21
-0.1486297994852066
 31
0.0
  0
LINE
  5
16F
330
17
100
AcDbEntity
  8
0
100
AcDbLine
 10
1899.548828125
 20
-25.552980422973633
 30
0.0
 11
1904.7025146484375
 21
-37.989288330078125
 31
0.0
  0
LINE
  5
170
330
17
100
AcDbEntity
  8
0
100
AcDbLine
 10
3494.377685546875
 20
-47.042667388916016
 30
0.0
 11
3503.144775390625
 21
-47.042667388916016
 31
0.0
  0
LINE
  5
171
330
17
100
AcDbEntity
  8
0
100
AcDbLine
 10
1896.2662353515625
 20
-11.236021041870117
 30
0.0
 11
1886.8729248046875
 21
-1.877138376235962
 31
0.0
  0
LINE
  5
172
330
17
100
AcDbEntity
  8
0
100
AcDbLine
 10
3648.47802734375
 20
-41.10777282714844
 30
0.0
 11
3630.64892578125
 21
-41.10777282714844
 31
0.0
  0
LINE
  5
173
330
17
100
AcDbEntity
  8
0
100
AcDbLine
 10
2647.210693359375
 20
-35.36605453491211
 30
0.0
 11
2653.16943359375
 21
-43.090641021728516
 31
0.0
  0
LINE
  5
174
330
17
100
AcDbEntity
  8
0
100
AcDbLine
 10
2785.64111328125
 20
-54.34917068481445
 30
0.0
 11
2772.733642578125
 21
-46.248783111572266
 31
0.0
  0
LINE
  5
175
330
17
100
AcDbEntity
  8
0
100
AcDbLine
 10
2374.273681640625
 20
-25.148244857788086
 30
0.0
 11
2383.197998046875
 21
-25.148244857788086
 31
0.0
  0
LINE
  5
176
330
17
100
AcDbEntity
  8
0
100
AcDbLine
 10
3074.607177734375
 20
-74.21452331542969
 30
0.0
 11
3069.3994140625
 21
-69.34899139404297
 31
0.0
  0
LINE
  5
177
330
17
100
AcDbEntity
  8
0
100
AcDbLine
 10
3438.229736328125
 20
-70.27906799316406
 30
0.0
 11
3438.229736328125
 21
-80.59514617919922
 31
0.0
  0
LINE
  5
178
330
17
100
AcDbEntity
  8
0
100
AcDbLine
 10
2749.490478515625
 20
-2314.346923828125
 30
0.0
 11
2754.656982421875
 21
-2335.556396484375
 31
0.0
  0
LINE
  5
179
330
17
100
AcDbEntity
  8
0
100
AcDbLine
 10
3272.07373046875
 20
-24.490131378173828
 30
0.0
 11
3277.986328125
 21
-34.45726776123047
 31
0.0
  0
LINE
  5
17A
330
17
100
AcDbEntity
  8
0
100
AcDbLine
 10
3474.522705078125
 20
-81.99729919433594
 30
0.0
 11
3459.292724609375
 21
-81.99729919433594
 31
0.0
  0
LINE
  5
17B
330
17
100
AcDbEntity
  8
0
100
AcDbLine
 10
3177.286865234375
 20
-20.340850830078125
 30
0.0
 11
3171.0009765625
 21
-11.227982521057129
 31
0.0
  0
LINE
  5
17C
330
17
100
AcDbEntity
  8
0
100
AcDbLine
 10
1930.6669921875
 20
-39.274169921875
 30
0.0
 11
1942.472412109375
 21
-44.19039535522461
 31
0.0
  0
LINE
  5
17D
330
17
100
AcDbEntity
  8
0
100
AcDbLine
 10
3467.6279296875
 20
-66.56260681152344
 30
0.0
 11
3471.901611328125
 21
-76.86392974853516
 31
0.0
  0
LINE
  5
17E
330
17
100
AcDbEntity
  8
0
100
AcDbLine
 10
2230.86376953125
 20
-47.6731071472168
 30
0.0
 11
2221.938720703125
 21
-47.6731071472168
 31
0.0
  0
LINE
  5
17F
330
17
100
AcDbEntity
  8
0
100
AcDbLine
 10
2140.574951171875
 20
-55.61369323730469
 30
0.0
 11
2149.36083984375
 21
-55.61369323730469
 31
0.0
  0
LINE
  5
180
330
17
100
AcDbEntity
  8
0
100
AcDbLine
 10
2954.14501953125
 20
-37.80410385131836
 30
0.0
 11
2960.64111328125
 21
-33.147613525390625
 31
0.0
  0
LINE
  5
181
330
17
100
AcDbEntity
  8
0
100
AcDbLine
 10
2890.009765625
 20
-6.714382171630859
 30
0.0
 11
2892.61376953125
 21
-17.004392623901367
 31
0.0
  0
LINE
  5
182
330
17
100
AcDbEntity
  8
0
100
AcDbLine
 10
3831.6396484375
 20
-12.271169662475586
 30
0.0
 11
3824.219970703125
 21
-3.4535937309265137
 31
0.0
  0
LINE
  5
183
330
17
100
AcDbEntity
  8
0
100
AcDbLine
 10
2559.431396484375
 20
-50.53791427612305
 30
0.0
 11
2546.06298828125
 21
-41.87871170043945
 31
0.0
  0
LINE
  5
184
330
17
100
AcDbEntity
  8
0
100
AcDbLine
 10
2996.2529296875
 20
-51.80733871459961
 30
0.0
 11
2982.135498046875
 21
-45.078369140625
 31
0.0
  0
LINE
  5
185
330
17
100
AcDbEntity
  8
0
100
AcDbLine
 10
2126.25146484375
 20
-0.12037575244903564
 30
0.0
 11
2129.57861328125
 21
-12.49255657196045
 31
0.0
  0
LINE
  5
186
330
17
100
AcDbEntity
  8
0
100
AcDbLine
 10
1717.3834228515625
 20
-1.3280999660491943
 30
0.0
 11
1725.6158447265625
 21
-9.384379386901855
 31
0.0
  0
LINE
  5
187
330
17
100
AcDbEntity
  8
0
100
AcDbLine
 10
1792.6658935546875
 20
-20.255722045898438
 30
0.0
 11
1796.915283203125
 21
-29.3562068939209
 31
0.0
  0
LINE
  5
188
330
17
100
AcDbEntity
  8
0
100
AcDbLine
 10
2731.981201171875
 20
-38.71042251586914
 30
0.0
 11
2717.989013671875
 21
-38.71042251586914
 31
0.0
  0
LINE
  5
189
330
17
100
AcDbEntity
  8
0
100
AcDbLine
 10
1771.7825927734375
 20
-12.386290550231934
 30
0.0
 11
1779.0545654296875
 21
-23.781770706176758
 31
0.0
  0
LINE
  5
18A
330
17
100
AcDbEntity
  8
0
100
AcDbLine
 10
3549.461181640625
 20
-67.61865997314453
 30
0.0
 11
3570.732666015625
 21
-67.61865997314453
 31
0.0
  0
LINE
  5
18B
330
17
100
AcDbEntity
  8
0
100
AcDbLine
 10
3771.876953125
 20
-2.5948636531829834
 30
0.0
 11
3798.125732421875
 21
-2.5948636531829834
 31
0.0
  0
LINE
  5
18C
330
17
100
AcDbEntity
  8
0
100
AcDbLine
 10
2042.74267578125
 20
0.17638307809829712
 30
0.0
 11
2038.31005859375
 21
-8.852197647094727
 31
0.0
  0
LINE
  5
18D
330
17
100
AcDbEntity
  8
0
100
AcDbLine
 10
2915.18115234375
 20
-12.836579322814941
 30
0.0
 11
2901.468505859375
 21
-6.5056047439575195
 31
0.0
  0
LINE
  5
18E
330
17
100
AcDbEntity
  8
0
100
AcDbLine
 10
3848.11669921875
 20
-14.410127639770508
 30
0.0
 11
3835.15869140625
 21
-11.348939895629883
 31
0.0
  0
LINE
  5
18F
330
17
100
AcDbEntity
  8
0
100
AcDbLine
 10
4007.90283203125
 20
-22.3834171295166
 30
0.0
 11
3991.506103515625
 21
-15.21922779083252
 31
0.0
  0
LINE
  5
190
330
17
100
AcDbEntity
  8
0
100
AcDbLine
 10
1758.167724609375
 20
-21.39409065246582
 30
0.0
 11
1745.6552734375
 21
-21.39409065246582
 31
0.0
  0
LINE
  5
191
330
17
100
AcDbEntity
  8
0
100
AcDbLine
 10
1854.51416015625
 20
-21.07855796813965
 30
0.0
 11
1844.3863525390625
 21
-21.07855796813965
 31
0.0
  0
LINE
  5
192
330
17
100
AcDbEntity
  8
0
100
AcDbLine
 10
2535.13427734375
 20
-22.15020751953125
 30
0.0
 11
2545.28955078125
 21
-25.41749382019043
 31
0.0
  0
LINE
  5
193
330
17
100
AcDbEntity
  8
0
100
AcDbLine
 10
2571.97802734375
 20
-28.68088722229004
 30
0.0
 11
2560.4296875
 21
-30.82047462463379
 31
0.0
  0
LINE
  5
194
330
17
100
AcDbEntity
  8
0
100
AcDbLine
 10
3257.1064453125
 20
-33.904541015625
 30
0.0
 11
3247.07373046875
 21
-28.970718383789062
 31
0.0
  0
LINE
  5
195
330
17
100
AcDbEntity
  8
0
100
AcDbLine
 10
2117.081787109375
 20
-45.309783935546875
 30
0.0
 11
2126.367919921875
 21
-51.39824295043945
 31
0.0
  0
LINE
  5
196
330
17
100
AcDbEntity
  8
0
100
AcDbLine
 10
3565.481689453125
 20
-73.43626403808594
 30
0.0
 11
3550.450439453125
 21
-73.43626403808594
 31
0.0
  0
LINE
  5
197
330
17
100
AcDbEntity
  8
0
100
AcDbLine
 10
3254.342529296875
 20
-84.71659851074219
 30
0.0
 11
3230.622802734375
 21
-84.71659851074219
 31
0.0
  0
LINE
  5
198
330
17
100
AcDbEntity
  8
0
100
AcDbLine
 10
3339.38134765625
 20
-10.713838577270508
 30
0.0
 11
3326.767333984375
 21
-10.713838577270508
 31
0.0
  0
LINE
  5
199
330
17
100
AcDbEntity
  8
0
100
AcDbLine
 10
2224.54296875
 20
-15.617133140563965
 30
0.0
 11
2224.54296875
 21
-33.07883071899414
 31
0.0
  0
LINE
  5
19A
330
17
100
AcDbEntity
  8
0
100
AcDbLine
 10
3780.655517578125
 20
-22.58705711364746
 30
0.0
 11
3794.433837890625
 21
-22.58705711364746
 31
0.0
  0
LINE
  5
19B
330
17
100
AcDbEntity
  8
0
100
AcDbLine
 10
2670.736083984375
 20
-48.6913948059082
 30
0.0
 11
2648.1669921875
 21
-48.6913948059082
 31
0.0
  0
LINE
  5
19C
330
17
100
AcDbEntity
  8
0
100
AcDbLine
 10
1074.5069580078125
 20
-2389.365478515625
 30
0.0
 11
1043.0806884765625
 21
-2389.365478515625
 31
0.0
  0
LINE
  5
19D
330
17
100
AcDbEntity
  8
0
100
AcDbLine
 10
3531.91259765625
 20
-43.060035705566406
 30
0.0
 11
3519.8486328125
 21
-36.05881118774414
 31
0.0
  0
LINE
  5
19E
330
17
100
AcDbEntity
  8
0
100
AcDbLine
 10
1792.6192626953125
 20
-50.778133392333984
 30
0.0
 11
1777.9771728515625
 21
-40.842803955078125
 31
0.0
  0
LINE
  5
19F
330
17
100
AcDbEntity
  8
0
100
AcDbLine
 10
2725.79248046875
 20
-42.83238220214844
 30
0.0
 11
2733.05908203125
 21
-46.99003219604492
 31
0.0
  0
LINE
  5
1A0
330
17
100
AcDbEntity
  8
0
100
AcDbLine
 10
2382.38671875
 20
-58.600074768066406
 30
0.0
 11
2376.20849609375
 21
-48.99951934814453
 31
0.0
  0
LINE
  5
1A1
330
17
100
AcDbEntity
  8
0
100
AcDbLine
 10
3050.218505859375
 20
-76.66496276855469
 30
0.0
 11
3035.51123046875
 21
-70.91596221923828
 31
0.0
  0
LINE
  5
1A2
330
17
100
AcDbEntity
  8
0
100
AcDbLine
 10
1821.4940185546875
 20
-3021.7041015625
 30
0.0
 11
1806.9794921875
 21
-3016.5791015625
 31
0.0
  0
LINE
  5
1A3
330
17
100
AcDbEntity
  8
0
100
AcDbLine
 10
3416.958984375
 20
-8.935770034790039
 30
0.0
 11
3406.808837890625
 21
-8.935770034790039
 31
0.0
  0
LINE
  5
1A4
330
17
100
AcDbEntity
  8
0
100
AcDbLine
 10
2234.5087890625
 20
-21.2479305267334
 30
0.0
 11
2225.49951171875
 21
-1.36545729637146
 31
0.0
  0
LINE
  5
1A5
330
17
100
AcDbEntity
  8
0
100
AcDbLine
 10
3561.52783203125
 20
-5.927730560302734
 30
0.0
 11
3570.79931640625
 21
-16.562719345092773
 31
0.0
  0
LINE
  5
1A6
330
17
100
AcDbEntity
  8
0
100
AcDbLine
 10
3498.93115234375
 20
-9.890499114990234
 30
0.0
 11
3489.98388671875
 21
-0.07021494209766388
 31
0.0
  0
LINE
  5
1A7
330
17
100
AcDbEntity
  8
0
100
AcDbLine
 10
3054.462158203125
 20
-7.670120716094971
 30
0.0
 11
3059.54931640625
 21
-15.110504150390625
 31
0.0
  0
LINE
  5
1A8
330
17
100
AcDbEntity
  8
0
100
AcDbLine
 10
2872.346923828125
 20
-17.942041397094727
 30
0.0
 11
2883.040771484375
 21
-25.740514755249023
 31
0.0
  0
LINE
  5
1A9
330
17
100
AcDbEntity
  8
0
100
AcDbLine
 10
3577.94091796875
 20
-37.014225006103516
 30
0.0
 11
3587.443359375
 21
-49.585208892822266
 31
0.0
  0
LINE
  5
1AA
330
17
100
AcDbEntity
  8
0
100
AcDbLine
 10
3588.28076171875
 20
-52.66053009033203
 30
0.0
 11
3578.162109375
 21
-49.2647819519043
 31
0.0
  0
LINE
  5
1AB
330
17
100
AcDbEntity
  8
0
100
AcDbLine
 10
3374.160400390625
 20
-49.492488861083984
 30
0.0
 11
3364.2783203125
 21
-51.36513137817383
 31
0.0
  0
LINE
  5
1AC
330
17
100
AcDbEntity
  8
0
100
AcDbLine
 10
3669.151611328125
 20
-74.61317443847656
 30
0.0
 11
3678.839111328125
 21
-83.69654083251953
 31
0.0
  0
LINE
  5
1AD
330
17
100
AcDbEntity
  8
0
100
AcDbLine
 10
1594.3548583984375
 20
-3006.1513671875
 30
0.0
 11
1571.8721923828125
 21
-3006.1513671875
 31
0.0
  0
LINE
  5
1AE
330
17
100
AcDbEntity
  8
0
100
AcDbLine
 10
3488.946044921875
 20
-47.439605712890625
 30
0.0
 11
3478.0087890625
 21
-39.1321907043457
 31
0.0
  0
LINE
  5
1AF
330
17
100
AcDbEntity
  8
0
100
AcDbLine
 10
3090.744873046875
 20
-16.963659286499023
 30
0.0
 11
3069.208251953125
 21
-16.963659286499023
 31
0.0
  0
LINE
  5
1B0
330
17
100
AcDbEntity
  8
0
100
AcDbLine
 10
1211.8961181640625
 20
-21.790815353393555
 30
0.0
 11
1194.2545166015625
 21
-17.354236602783203
 31
0.0
  0
LINE
  5
1B1
330
17
100
AcDbEntity
  8
0
100
AcDbLine
 10
3383.435546875
 20
-25.588651657104492
 30
0.0
 11
3372.84912109375
 21
-28.296785354614258
 31
0.0
  0
LINE
  5
1B2
330
17
100
AcDbEntity
  8
0
100
AcDbLine
 10
3595.6201171875
 20
-39.422142028808594
 30
0.0
 11
3610.71630859375
 21
-39.422142028808594
 31
0.0
  0
LINE
  5
1B3
330
17
100
AcDbEntity
  8
0
100
AcDbLine
 10
3530.724853515625
 20
-56.46364974975586
 30
0.0
 11
3533.4833984375
 21
-65.51579284667969
 31
0.0
  0
LINE
  5
1B4
330
17
100
AcDbEntity
  8
0
100
AcDbLine
 10
3185.6220703125
 20
-64.37000274658203
 30
0.0
 11
3194.3623046875
 21
-59.3530387878418
 31
0.0
  0
LINE
  5
1B5
330
17
100
AcDbEntity
  8
0
100
AcDbLine
 10
3345.693359375
 20
-78.22686004638672
 30
0.0
 11
3335.728759765625
 21
-78.22686004638672
 31
0.0
  0
LINE
  5
1B6
330
17
100
AcDbEntity
  8
0
100
AcDbLine
 10
1506.505615234375
 20
-0.6068887114524841
 30
0.0
 11
1506.505615234375
 21
-15.632057189941406
 31
0.0
  0
LINE
  5
1B7
330
17
100
AcDbEntity
  8
0
100
AcDbLine
 10
3551.81982421875
 20
-5.254542827606201
 30
0.0
 11
3560.69189453125
 21
-5.254542827606201
 31
0.0
  0
LINE
  5
1B8
330
17
100
AcDbEntity
  8
0
100
AcDbLine
 10
2059.015625
 20
-15.110669136047363
 30
0.0
 11
2042.4224853515625
 21
-7.0042405128479
 31
0.0
  0
LINE
  5
1B9
330
17
100
AcDbEntity
  8
0
100
AcDbLine
 10
3702.580322265625
 20
-11.136153221130371
 30
0.0
 11
3707.7236328125
 21
-16.045503616333008
 31
0.0
  0
LINE
  5
1BA
330
17
100
AcDbEntity
  8
0
100
AcDbLine
 10
2312.125
 20
-19.147140502929688
 30
0.0
 11
2305.041259765625
 21
-11.377784729003906
 31
0.0
  0
LINE
  5
1BB
330
17
100
AcDbEntity
  8
0
100
AcDbLine
 10
2969.29736328125
 20
-58.51115036010742
 30
0.0
 11
2958.00146484375
 21
-56.23884201049805
 31
0.0
  0
LINE
  5
1BC
330
17
100
AcDbEntity
  8
0
100
AcDbLine
 10
3206.7255859375
 20
-83.58374786376953
 30
0.0
 11
3196.580322265625
 21
-80.27947998046875
 31
0.0
  0
LINE
  5
1BD
330
17
100
AcDbEntity
  8
0
100
AcDbLine
 10
1848.2095947265625
 20
-3016.225341796875
 30
0.0
 11
1858.1876220703125
 21
-3016.225341796875
 31
0.0
  0
LINE
  5
1BE
330
17
100
AcDbEntity
  8
0
100
AcDbLine
 10
3566.818603515625
 20
-36.80046844482422
 30
0.0
 11
3576.915283203125
 21
-36.80046844482422
 31
0.0
  0
LINE
  5
1BF
330
17
100
AcDbEntity
  8
0
100
AcDbLine
 10
2211.24169921875
 20
-30.87056541442871
 30
0.0
 11
2207.29150390625
 21
-40.79087829589844
 31
0.0
  0
LINE
  5
1C0
330
17
100
AcDbEntity
  8
0
100
AcDbLine
 10
1934.705078125
 20
-55.46328353881836
 30
0.0
 11
1928.55712890625
 21
-42.91329574584961
 31
0.0
  0
LINE
  5
1C1
330
17
100
AcDbEntity
  8
0
100
AcDbLine
 10
3500.664794921875
 20
-51.063453674316406
 30
0.0
 11
3486.88671875
 21
-51.063453674316406
 31
0.0
  0
LINE
  5
1C2
330
17
100
AcDbEntity
  8
0
100
AcDbLine
 10
2758.07958984375
 20
-77.2511215209961
 30
0.0
 11
2740.533203125
 21
-77.2511215209961
 31
0.0
  0
LINE
  5
1C3
330
17
100
AcDbEntity
  8
0
100
AcDbLine
 10
3492.55615234375
 20
-34.67955017089844
 30
0.0
 11
3481.00048828125
 21
-26.353843688964844
 31
0.0
  0
LINE
  5
1C4
330
17
100
AcDbEntity
  8
0
100
AcDbLine
 10
1710.06884765625
 20
-9.111689567565918
 30
0.0
 11
1700.3411865234375
 21
-3.6284430027008057
 31
0.0
  0
LINE
  5
1C5
330
17
100
AcDbEntity
  8
0
100
AcDbLine
 10
3874.333251953125
 20
-77.19873046875
 30
0.0
 11
3884.486572265625
 21
-77.19873046875
 31
0.0
  0
LINE
  5
1C6
330
17
100
AcDbEntity
  8
0
100
AcDbLine
 10
3140.89453125
 20
-83.63601684570312
 30
0.0
 11
3132.665771484375
 21
-80.6341552734375
 31
0.0
  0
LINE
  5
1C7
330
17
100
AcDbEntity
  8
0
100
AcDbLine
 10
2964.186279296875
 20
-14.823864936828613
 30
0.0
 11
2949.20556640625
 21
-8.52790641784668
 31
0.0
  0
LINE
  5
1C8
330
17
100
AcDbEntity
  8
0
100
AcDbLine
 10
3364.96240234375
 20
-48.11240768432617
 30
0.0
 11
3352.909912109375
 21
-45.294639587402344
 31
0.0
  0
LINE
  5
1C9
330
17
100
AcDbEntity
  8
0
100
AcDbLine
 10
2745.43505859375
 20
-65.10734558105469
 30
0.0
 11
2755.057861328125
 21
-61.57835388183594
 31
0.0
  0
LINE
  5
1CA
330
17
100
AcDbEntity
  8
0
100
AcDbLine
 10
3828.79833984375
 20
0.0392993800342083
 30
0.0
 11
3835.631103515625
 21
-6.885690212249756
 31
0.0
  0
LINE
  5
1CB
330
17
100
AcDbEntity
  8
0
100
AcDbLine
 10
2257.917724609375
 20
-5.800187110900879
 30
0.0
 11
2263.697509765625
 21
-12.641280174255371
 31
0.0
  0
LINE
  5
1CC
330
17
100
AcDbEntity
  8
0
100
AcDbLine
 10
1847.6131591796875
 20
-41.24721908569336
 30
0.0
 11
1840.073486328125
 21
-35.0455207824707
 31
0.0
  0
LINE
  5
1CD
330
17
100
AcDbEntity
  8
0
100
AcDbLine
 10
3713.692138671875
 20
-37.872562408447266
 30
0.0
 11
3723.728759765625
 21
-44.742855072021484
 31
0.0
  0
LINE
  5
1CE
330
17
100
AcDbEntity
  8
0
100
AcDbLine
 10
3065.940673828125
 20
-72.947021484375
 30
0.0
 11
3070.888916015625
 21
-81.72631072998047
 31
0.0
  0
LINE
  5
1CF
330
17
100
AcDbEntity
  8
0
100
AcDbLine
 10
2736.0537109375
 20
-30.5976619720459
 30
0.0
 11
2736.0537109375
 21
-41.8021240234375
 31
0.0
  0
LINE
  5
1D0
330
17
100
AcDbEntity
  8
0
100
AcDbLine
 10
2815.848388671875
 20
-50.5268440246582
 30
0.0
 11
2809.3623046875
 21
-50.5268440246582
 31
0.0
  0
LINE
  5
1D1
330
17
100
AcDbEntity
  8
0
100
AcDbLine
 10
3920.583984375
 20
-86.03150177001953
 30
0.0
 11
3906.847900390625
 21
-86.03150177001953
 31
0.0
  0
LINE
  5
1D2
330
17
100
AcDbEntity
  8
0
100
AcDbLine
 10
1491.0697021484375
 20
-31.149795532226562
 30
0.0
 11
1485.8929443359375
 21
-10.875770568847656
 31
0.0
  0
LINE
  5
1D3
330
17
100
AcDbEntity
  8
0
100
AcDbLine
 10
3211.602294921875
 20
-36.68757247924805
 30
0.0
 11
3210.357177734375
 21
-30.196847915649414
 31
0.0
  0
LINE
  5
1D4
330
17
100
AcDbEntity
  8
0
100
AcDbLine
 10
3334.980224609375
 20
-79.25613403320312
 30
0.0
 11
3332.805908203125
 21
-68.18765258789062
 31
0.0
  0
LINE
  5
1D5
330
17
100
AcDbEntity
  8
0
100
AcDbLine
 10
1987.3494873046875
 20
-10.626914978027344
 30
0.0
 11
1987.3494873046875
 21
-0.6221968531608582
 31
0.0
  0
LINE
  5
1D6
330
17
100
AcDbEntity
  8
0
100
AcDbLine
 10
1815.4407958984375
 20
-10.030757904052734
 30
0.0
 11
1825.3604736328125
 21
-12.816933631896973
 31
0.0
  0
LINE
  5
1D7
330
17
100
AcDbEntity
  8
0
100
AcDbLine
 10
2445.838623046875
 20
-19.6221866607666
 30
0.0
 11
2447.4638671875
 21
-26.436405181884766
 31
0.0
  0
LINE
  5
1D8
330
17
100
AcDbEntity
  8
0
100
AcDbLine
 10
2408.767822265625
 20
-29.402624130249023
 30
0.0
 11
2408.767822265625
 21
-16.87169075012207
 31
0.0
  0
LINE
  5
1D9
330
17
100
AcDbEntity
  8
0
100
AcDbLine
 10
3795.60791015625
 20
-32.33681106567383
 30
0.0
 11
3813.126708984375
 21
-32.33681106567383
 31
0.0
  0
LINE
  5
1DA
330
17
100
AcDbEntity
  8
0
100
AcDbLine
 10
4001.901123046875
 20
-66.45735168457031
 30
0.0
 11
4030.695068359375
 21
-66.45735168457031
 31
0.0
  0
LINE
  5
1DB
330
17
100
AcDbEntity
  8
0
100
AcDbLine
 10
975.67333984375
 20
-1.872772455215454
 30
0.0
 11
965.5916137695312
 21
-1.872772455215454
 31
0.0
  0
LINE
  5
1DC
330
17
100
AcDbEntity
  8
0
100
AcDbLine
 10
2744.572509765625
 20
-11.084855079650879
 30
0.0
 11
2758.101806640625
 21
-14.46798038482666
 31
0.0
  0
LINE
  5
1DD
330
17
100
AcDbEntity
  8
0
100
AcDbLine
 10
3793.125244140625
 20
-26.879619598388672
 30
0.0
 11
3781.841796875
 21
-26.879619598388672
 31
0.0
  0
LINE
  5
1DE
330
17
100
AcDbEntity
  8
0
100
AcDbLine
 10
2665.583740234375
 20
-38.22982406616211
 30
0.0
 11
2651.9736328125
 21
-32.87428665161133
 31
0.0
  0
LINE
  5
1DF
330
17
100
AcDbEntity
  8
0
100
AcDbLine
 10
1715.63671875
 20
-47.693702697753906
 30
0.0
 11
1700.6138916015625
 21
-47.693702697753906
 31
0.0
  0
LINE
  5
1E0
330
17
100
AcDbEntity
  8
0
100
AcDbLine
 10
1736.9642333984375
 20
-1.6005971431732178
 30
0.0
 11
1747.1109619140625
 21
-4.8990912437438965
 31
0.0
  0
LINE
  5
1E1
330
17
100
AcDbEntity
  8
0
100
AcDbLine
 10
3526.8544921875
 20
-3.3757503032684326
 30
0.0
 11
3536.990966796875
 21
-3.3757503032684326
 31
0.0
  0
LINE
  5
1E2
330
17
100
AcDbEntity
  8
0
100
AcDbLine
 10
1134.0447998046875
 20
-11.008646965026855
 30
0.0
 11
1131.5433349609375
 21
-0.7055136561393738
 31
0.0
  0
LINE
  5
1E3
330
17
100
AcDbEntity
  8
0
100
AcDbLine
 10
1706.967041015625
 20
-22.498558044433594
 30
0.0
 11
1698.402099609375
 21
-22.498558044433594
 31
0.0
  0
LINE
  5
1E4
330
17
100
AcDbEntity
  8
0
100
AcDbLine
 10
3799.529541015625
 20
-65.14122772216797
 30
0.0
 11
3790.86572265625
 21
-62.3720703125
 31
0.0
  0
LINE
  5
1E5
330
17
100
AcDbEntity
  8
0
100
AcDbLine
 10
3838.2470703125
 20
-78.10372924804688
 30
0.0
 11
3838.2470703125
 21
-93.29573059082031
 31
0.0
  0
LINE
  5
1E6
330
17
100
AcDbEntity
  8
0
100
AcDbLine
 10
1775.734375
 20
-10.464969635009766
 30
0.0
 11
1761.703857421875
 21
-0.8753742575645447
 31
0.0
  0
LINE
  5
1E7
330
17
100
AcDbEntity
  8
0
100
AcDbLine
 10
3716.09375
 20
-49.091453552246094
 30
0.0
 11
3710.32470703125
 21
-39.55663299560547
 31
0.0
  0
LINE
  5
1E8
330
17
100
AcDbEntity
  8
0
100
AcDbLine
 10
2669.50537109375
 20
-34.70503616333008
 30
0.0
 11
2680.945556640625
 21
-30.1868839263916
 31
0.0
  0
LINE
  5
1E9
330
17
100
AcDbEntity
  8
0
100
AcDbLine
 10
3824.10498046875
 20
-93.1891860961914
 30
0.0
 11
3815.965576171875
 21
-86.46282958984375
 31
0.0
  0
LINE
  5
1EA
330
17
100
AcDbEntity
  8
0
100
AcDbLine
 10
3574.181884765625
 20
-14.500763893127441
 30
0.0
 11
3565.860595703125
 21
-1.721589207649231
 31
0.0
  0
LINE
  5
1EB
330
17
100
AcDbEntity
  8
0
100
AcDbLine
 10
3602.557861328125
 20
-19.997385025024414
 30
0.0
 11
3592.73779296875
 21
-11.049861907958984
 31
0.0
  0
LINE
  5
1EC
330
17
100
AcDbEntity
  8
0
100
AcDbLine
 10
2358.003173828125
 20
-24.458087921142578
 30
0.0
 11
2364.64208984375
 21
-34.19281768798828
 31
0.0
  0
LINE
  5
1ED
330
17
100
AcDbEntity
  8
0
100
AcDbLine
 10
3741.846923828125
 20
-26.28354835510254
 30
0.0
 11
3758.12060546875
 21
-26.28354835510254
 31
0.0
  0
LINE
  5
1EE
330
17
100
AcDbEntity
  8
0
100
AcDbLine
 10
3096.71923828125
 20
-52.94719314575195
 30
0.0
 11
3096.71923828125
 21
-40.57085037231445
 31
0.0
  0
LINE
  5
1EF
330
17
100
AcDbEntity
  8
0
100
AcDbLine
 10
3815.760009765625
 20
-76.75357055664062
 30
0.0
 11
3825.822998046875
 21
-87.94711303710938
 31
0.0
  0
LINE
  5
1F0
330
17
100
AcDbEntity
  8
0
100
AcDbLine
 10
2024.424560546875
 20
-4.360435962677002
 30
0.0
 11
2027.7669677734375
 21
-15.730246543884277
 31
0.0
  0
LINE
  5
1F1
330
17
100
AcDbEntity
  8
0
100
AcDbLine
 10
3535.540283203125
 20
-75.83196258544922
 30
0.0
 11
3547.366943359375
 21
-80.67305755615234
 31
0.0
  0
LINE
  5
1F2
330
17
100
AcDbEntity
  8
0
100
AcDbLine
 10
1400.611083984375
 20
-3020.997802734375
 30
0.0
 11
1328.12939453125
 21
-3020.997802734375
 31
0.0
  0
LINE
  5
1F3
330
17
100
AcDbEntity
  8
0
100
AcDbLine
 10
2656.8564453125
 20
-58.98790740966797
 30
0.0
 11
2645.63232421875
 21
-58.98790740966797
 31
0.0
  0
LINE
  5
1F4
330
17
100
AcDbEntity
  8
0
100
AcDbLine
 10
2726.631591796875
 20
-2138.14697265625
 30
0.0
 11
2726.631591796875
 21
-2156.858154296875
 31
0.0
  0
LINE
  5
1F5
330
17
100
AcDbEntity
  8
0
100
AcDbLine
 10
2621.93505859375
 20
-51.592437744140625
 30
0.0
 11
2610.408447265625
 21
-49.14550018310547
 31
0.0
  0
LINE
  5
1F6
330
17
100
AcDbEntity
  8
0
100
AcDbLine
 10
2405.6416015625
 20
-59.825714111328125
 30
0.0
 11
2414.387939453125
 21
-59.825714111328125
 31
0.0
  0
LINE
  5
1F7
330
17
100
AcDbEntity
  8
0
100
AcDbLine
 10
2958.13330078125
 20
-1361.875
 30
0.0
 11
2958.13330078125
 21
-1385.6241455078125
 31
0.0
  0
LINE
  5
1F8
330
17
100
AcDbEntity
  8
0
100
AcDbLine
 10
2985.330810546875
 20
-2266.887939453125
 30
0.0
 11
2985.330810546875
 21
-2291.839599609375
 31
0.0
  0
LINE
  5
1F9
330
17
100
AcDbEntity
  8
0
100
AcDbLine
 10
1768.4256591796875
 20
-17.83283042907715
 30
0.0
 11
1758.2509765625
 21
-21.02642059326172
 31
0.0
  0
LINE
  5
1FA
330
17
100
AcDbEntity
  8
0
100
AcDbLine
 10
3879.40625
 20
-46.75088119506836
 30
0.0
 11
3867.937744140625
 21
-43.87113571166992
 31
0.0
  0
LINE
  5
1FB
330
17
100
AcDbEntity
  8
0
100
AcDbLine
 10
2431.09521484375
 20
-12.433441162109375
 30
0.0
 11
2436.600341796875
 21
-7.798872947692871
 31
0.0
  0
LINE
  5
1FC
330
17
100
AcDbEntity
  8
0
100
AcDbLine
 10
2764.3271484375
 20
-23.629375457763672
 30
0.0
 11
2761.302978515625
 21
-15.84731388092041
 31
0.0
  0
LINE
  5
1FD
330
17
100
AcDbEntity
  8
0
100
AcDbLine
 10
3740.123779296875
 20
-47.06237030029297
 30
0.0
 11
3728.201904296875
 21
-42.9045295715332
 31
0.0
  0
LINE
  5
1FE
330
17
100
AcDbEntity
  8
0
100
AcDbLine
 10
3141.7236328125
 20
-70.43051147460938
 30
0.0
 11
3135.40478515625
 21
-62.04095458984375
 31
0.0
  0
LINE
  5
1FF
330
17
100
AcDbEntity
  8
0
100
AcDbLine
 10
1209.7645263671875
 20
-0.5659975409507751
 30
0.0
 11
1209.7645263671875
 21
-6.897763729095459
 31
0.0
  0
LINE
  5
200
330
17
100
AcDbEntity
  8
0
100
AcDbLine
 10
3664.2197265625
 20
-53.035118103027344
 30
0.0
 11
3676.83984375
 21
-53.035118103027344
 31
0.0
  0
LINE
  5
201
330
17
100
AcDbEntity
  8
0
100
AcDbLine
 10
3431.86279296875
 20
-61.77864456176758
 30
0.0
 11
3423.095947265625
 21
-61.77864456176758
 31
0.0
  0
LINE
  5
202
330
17
100
AcDbEntity
  8
0
100
AcDbLine
 10
3598.1435546875
 20
-88.02977752685547
 30
0.0
 11
3589.3779296875
 21
-88.02977752685547
 31
0.0
  0
LINE
  5
203
330
17
100
AcDbEntity
  8
0
100
AcDbLine
 10
1452.3016357421875
 20
-8.964529037475586
 30
0.0
 11
1444.925537109375
 21
-1.2978934049606323
 31
0.0
  0
LINE
  5
204
330
17
100
AcDbEntity
  8
0
100
AcDbLine
 10
1379.736328125
 20
-1.2920546531677246
 30
0.0
 11
1393.776123046875
 21
-13.63426399230957
 31
0.0
  0
LINE
  5
205
330
17
100
AcDbEntity
  8
0
100
AcDbLine
 10
2782.78955078125
 20
-20.6629638671875
 30
0.0
 11
2791.898193359375
 21
-23.036174774169922
 31
0.0
  0
LINE
  5
206
330
17
100
AcDbEntity
  8
0
100
AcDbLine
 10
1336.27001953125
 20
-13.320316314697266
 30
0.0
 11
1345.16357421875
 21
-24.734560012817383
 31
0.0
  0
LINE
  5
207
330
17
100
AcDbEntity
  8
0
100
AcDbLine
 10
3128.28076171875
 20
-24.158212661743164
 30
0.0
 11
3128.28076171875
 21
-35.523468017578125
 31
0.0
  0
LINE
  5
208
330
17
100
AcDbEntity
  8
0
100
AcDbLine
 10
1646.145263671875
 20
-43.36080551147461
 30
0.0
 11
1635.2083740234375
 21
-37.7503776550293
 31
0.0
  0
LINE
  5
209
330
17
100
AcDbEntity
  8
0
100
AcDbLine
 10
2153.099853515625
 20
-60.42336654663086
 30
0.0
 11
2138.022705078125
 21
-60.42336654663086
 31
0.0
  0
LINE
  5
20A
330
17
100
AcDbEntity
  8
0
100
AcDbLine
 10
2909.444580078125
 20
-71.77347564697266
 30
0.0
 11
2890.865234375
 21
-59.02498245239258
 31
0.0
  0
LINE
  5
20B
330
17
100
AcDbEntity
  8
0
100
AcDbLine
 10
2891.894775390625
 20
-79.60260772705078
 30
0.0
 11
2864.332275390625
 21
-79.60260772705078
 31
0.0
  0
LINE
  5
20C
330
17
100
AcDbEntity
  8
0
100
AcDbLine
 10
1652.63037109375
 20
-38.80405807495117
 30
0.0
 11
1642.8350830078125
 21
-25.844078063964844
 31
0.0
  0
LINE
  5
20D
330
17
100
AcDbEntity
  8
0
100
AcDbLine
 10
1878.6976318359375
 20
-32.80158996582031
 30
0.0
 11
1871.298095703125
 21
-19.70084571838379
 31
0.0
  0
LINE
  5
20E
330
17
100
AcDbEntity
  8
0
100
AcDbLine
 10
3904.338134765625
 20
-64.89973449707031
 30
0.0
 11
3924.349853515625
 21
-64.89973449707031
 31
0.0
  0
LINE
  5
20F
330
17
100
AcDbEntity
  8
0
100
AcDbLine
 10
2756.157958984375
 20
-2339.413818359375
 30
0.0
 11
2756.157958984375
 21
-2363.125244140625
 31
0.0
  0
LINE
  5
210
330
17
100
AcDbEntity
  8
0
100
AcDbLine
 10
2959.206787109375
 20
-51.04491424560547
 30
0.0
 11
2970.62646484375
 21
-55.621604919433594
 31
0.0
  0
LINE
  5
211
330
17
100
AcDbEntity
  8
0
100
AcDbLine
 10
2869.89794921875
 20
-70.49226379394531
 30
0.0
 11
2867.66015625
 21
-61.675697326660156
 31
0.0
  0
LINE
  5
212
330
17
100
AcDbEntity
  8
0
100
AcDbLine
 10
3333.194091796875
 20
-87.74998474121094
 30
0.0
 11
3316.586669921875
 21
-84.69088745117188
 31
0.0
  0
LINE
  5
213
330
17
100
AcDbEntity
  8
0
100
AcDbLine
 10
3425.804931640625
 20
-88.1693115234375
 30
0.0
 11
3408.138671875
 21
-88.1693115234375
 31
0.0
  0
LINE
  5
214
330
17
100
AcDbEntity
  8
0
100
AcDbLine
 10
2407.29833984375
 20
-2170.61181640625
 30
0.0
 11
2407.29833984375
 21
-2185.63623046875
 31
0.0
  0
LINE
  5
215
330
17
100
AcDbEntity
  8
0
100
AcDbLine
 10
2689.52587890625
 20
-9.856484413146973
 30
0.0
 11
2679.3505859375
 21
-13.047370910644531
 31
0.0
  0
LINE
  5
216
330
17
100
AcDbEntity
  8
0
100
AcDbLine
 10
3638.1396484375
 20
-12.272459983825684
 30
0.0
 11
3654.367431640625
 21
-12.272459983825684
 31
0.0
  0
LINE
  5
217
330
17
100
AcDbEntity
  8
0
100
AcDbLine
 10
1800.0726318359375
 20
-39.50335693359375
 30
0.0
 11
1802.1300048828125
 21
-48.35622787475586
 31
0.0
  0
LINE
  5
218
330
17
100
AcDbEntity
  8
0
100
AcDbLine
 10
3741.67041015625
 20
-45.680511474609375
 30
0.0
 11
3743.96728515625
 21
-54.14646911621094
 31
0.0
  0
LINE
  5
219
330
17
100
AcDbEntity
  8
0
100
AcDbLine
 10
3414.81494140625
 20
-80.73455810546875
 30
0.0
 11
3424.264892578125
 21
-82.4737777709961
 31
0.0
  0
LINE
  5
21A
330
17
100
AcDbEntity
  8
0
100
AcDbLine
 10
3795.65283203125
 20
-17.89510154724121
 30
0.0
 11
3784.26708984375
 21
-17.89510154724121
 31
0.0
  0
LINE
  5
21B
330
17
100
AcDbEntity
  8
0
100
AcDbLine
 10
2049.634765625
 20
-16.68473243713379
 30
0.0
 11
2055.830810546875
 21
-25.140226364135742
 31
0.0
  0
LINE
  5
21C
330
17
100
AcDbEntity
  8
0
100
AcDbLine
 10
3759.490478515625
 20
-6.924101829528809
 30
0.0
 11
3745.62841796875
 21
-6.924101829528809
 31
0.0
  0
LINE
  5
21D
330
17
100
AcDbEntity
  8
0
100
AcDbLine
 10
1814.0980224609375
 20
-18.401086807250977
 30
0.0
 11
1806.6102294921875
 21
-10.888947486877441
 31
0.0
  0
LINE
  5
21E
330
17
100
AcDbEntity
  8
0
100
AcDbLine
 10
3384.6044921875
 20
-81.11997985839844
 30
0.0
 11
3403.37646484375
 21
-72.41753387451172
 31
0.0
  0
LINE
  5
21F
330
17
100
AcDbEntity
  8
0
100
AcDbLine
 10
1044.970947265625
 20
-2096.896240234375
 30
0.0
 11
1044.970947265625
 21
-2041.876708984375
 31
0.0
  0
LINE
  5
220
330
17
100
AcDbEntity
  8
0
100
AcDbLine
 10
2740.1376953125
 20
-2218.166748046875
 30
0.0
 11
2740.1376953125
 21
-2263.05224609375
 31
0.0
  0
LINE
  5
221
330
17
100
AcDbEntity
  8
0
100
AcDbLine
 10
3665.693603515625
 20
-19.419193267822266
 30
0.0
 11
3673.018798828125
 21
-8.056558609008789
 31
0.0
  0
LINE
  5
222
330
17
100
AcDbEntity
  8
0
100
AcDbLine
 10
3603.010498046875
 20
-31.50069808959961
 30
0.0
 11
3618.917236328125
 21
-26.63016700744629
 31
0.0
  0
LINE
  5
223
330
17
100
AcDbEntity
  8
0
100
AcDbLine
 10
2746.68505859375
 20
-2279.390869140625
 30
0.0
 11
2746.68505859375
 21
-2298.113525390625
 31
0.0
  0
LINE
  5
224
330
17
100
AcDbEntity
  8
0
100
AcDbLine
 10
3670.734375
 20
-5.22746467590332
 30
0.0
 11
3678.345947265625
 21
-7.322028636932373
 31
0.0
  0
LINE
  5
225
330
17
100
AcDbEntity
  8
0
100
AcDbLine
 10
1372.231201171875
 20
-33.732112884521484
 30
0.0
 11
1367.561279296875
 21
-26.857030868530273
 31
0.0
  0
LINE
  5
226
330
17
100
AcDbEntity
  8
0
100
AcDbLine
 10
2427.7509765625
 20
-44.57979965209961
 30
0.0
 11
2429.885009765625
 21
-35.451988220214844
 31
0.0
  0
LINE
  5
227
330
17
100
AcDbEntity
  8
0
100
AcDbLine
 10
3579.2275390625
 20
-69.5071792602539
 30
0.0
 11
3588.09765625
 21
-79.39949035644531
 31
0.0
  0
LINE
  5
228
330
17
100
AcDbEntity
  8
0
100
AcDbLine
 10
2957.53271484375
 20
-1400.6180419921875
 30
0.0
 11
2957.53271484375
 21
-1441.8765869140625
 31
0.0
  0
LINE
  5
229
330
17
100
AcDbEntity
  8
0
100
AcDbLine
 10
1106.857177734375
 20
-6.970127582550049
 30
0.0
 11
1121.8011474609375
 21
-9.76904582977295
 31
0.0
  0
LINE
  5
22A
330
17
100
AcDbEntity
  8
0
100
AcDbLine
 10
3419.37548828125
 20
-56.88803482055664
 30
0.0
 11
3431.875
 21
-56.88803482055664
 31
0.0
  0
LINE
  5
22B
330
17
100
AcDbEntity
  8
0
100
AcDbLine
 10
1834.802001953125
 20
-17.934051513671875
 30
0.0
 11
1839.827392578125
 21
-29.1727237701416
 31
0.0
  0
LINE
  5
22C
330
17
100
AcDbEntity
  8
0
100
AcDbLine
 10
1700.6351318359375
 20
-3002.983154296875
 30
0.0
 11
1685.6220703125
 21
-3002.983154296875
 31
0.0
  0
LINE
  5
22D
330
17
100
AcDbEntity
  8
0
100
AcDbLine
 10
1417.7796630859375
 20
-0.5120840072631836
 30
0.0
 11
1417.7796630859375
 21
-11.882070541381836
 31
0.0
  0
LINE
  5
22E
330
17
100
AcDbEntity
  8
0
100
AcDbLine
 10
1923.160888671875
 20
-39.48213577270508
 30
0.0
 11
1935.53076171875
 21
-35.343505859375
 31
0.0
  0
LINE
  5
22F
330
17
100
AcDbEntity
  8
0
100
AcDbLine
 10
1680.308837890625
 20
-43.158565521240234
 30
0.0
 11
1669.162109375
 21
-46.05609130859375
 31
0.0
  0
LINE
  5
230
330
17
100
AcDbEntity
  8
0
100
AcDbLine
 10
2218.623291015625
 20
-47.70245361328125
 30
0.0
 11
2226.600341796875
 21
-57.10795593261719
 31
0.0
  0
LINE
  5
231
330
17
100
AcDbEntity
  8
0
100
AcDbLine
 10
1144.3751220703125
 20
-3020.673583984375
 30
0.0
 11
1116.873046875
 21
-3020.673583984375
 31
0.0
  0
LINE
  5
232
330
17
100
AcDbEntity
  8
0
100
AcDbLine
 10
2863.718505859375
 20
-15.458096504211426
 30
0.0
 11
2855.3837890625
 21
-11.966753005981445
 31
0.0
  0
LINE
  5
233
330
17
100
AcDbEntity
  8
0
100
AcDbLine
 10
3702.923583984375
 20
-23.256555557250977
 30
0.0
 11
3694.011474609375
 21
-9.61246395111084
 31
0.0
  0
LINE
  5
234
330
17
100
AcDbEntity
  8
0
100
AcDbLine
 10
187.11912536621094
 20
-3019.20068359375
 30
0.0
 11
174.5596160888672
 21
-3019.20068359375
 31
0.0
  0
LINE
  5
235
330
17
100
AcDbEntity
  8
0
100
AcDbLine
 10
3580.529052734375
 20
-53.02095413208008
 30
0.0
 11
3580.529052734375
 21
-68.10090637207031
 31
0.0
  0
LINE
  5
236
330
17
100
AcDbEntity
  8
0
100
AcDbLine
 10
1455.2379150390625
 20
-24.300752639770508
 30
0.0
 11
1465.1162109375
 21
-30.73735237121582
 31
0.0
  0
LINE
  5
237
330
17
100
AcDbEntity
  8
0
100
AcDbLine
 10
2495.686279296875
 20
-58.1590461730957
 30
0.0
 11
2498.987548828125
 21
-52.21548843383789
 31
0.0
  0
LINE
  5
238
330
17
100
AcDbEntity
  8
0
100
AcDbLine
 10
1860.40283203125
 20
-35.65750503540039
 30
0.0
 11
1860.40283203125
 21
-48.25364303588867
 31
0.0
  0
LINE
  5
239
330
17
100
AcDbEntity
  8
0
100
AcDbLine
 10
2964.04931640625
 20
-1506.879638671875
 30
0.0
 11
2964.04931640625
 21
-1533.124267578125
 31
0.0
  0
LINE
  5
23A
330
17
100
AcDbEntity
  8
0
100
AcDbLine
 10
2601.917236328125
 20
-2375.022705078125
 30
0.0
 11
2581.83935546875
 21
-2375.022705078125
 31
0.0
  0
LINE
  5
23B
330
17
100
AcDbEntity
  8
0
100
AcDbLine
 10
1568.103759765625
 20
-3006.45654296875
 30
0.0
 11
1534.440185546875
 21
-3006.45654296875
 31
0.0
  0
LINE
  5
23C
330
17
100
AcDbEntity
  8
0
100
AcDbLine
 10
2427.502685546875
 20
-30.215023040771484
 30
0.0
 11
2414.6865234375
 21
-39.79199981689453
 31
0.0
  0
LINE
  5
23D
330
17
100
AcDbEntity
  8
0
100
AcDbLine
 10
1176.89013671875
 20
-2400.95703125
 30
0.0
 11
1161.8643798828125
 21
-2400.95703125
 31
0.0
  0
LINE
  5
23E
330
17
100
AcDbEntity
  8
0
100
AcDbLine
 10
1263.140869140625
 20
-3011.513427734375
 30
0.0
 11
1176.873779296875
 21
-3011.513427734375
 31
0.0
  0
LINE
  5
23F
330
17
100
AcDbEntity
  8
0
100
AcDbLine
 10
1335.0096435546875
 20
-4.231550216674805
 30
0.0
 11
1337.28173828125
 21
-14.283053398132324
 31
0.0
  0
LINE
  5
240
330
17
100
AcDbEntity
  8
0
100
AcDbLine
 10
3324.70068359375
 20
-44.265384674072266
 30
0.0
 11
3324.70068359375
 21
-56.88438415527344
 31
0.0
  0
LINE
  5
241
330
17
100
AcDbEntity
  8
0
100
AcDbLine
 10
149.5648956298828
 20
-3014.489990234375
 30
0.0
 11
130.82968139648438
 21
-3014.489990234375
 31
0.0
  0
LINE
  5
242
330
17
100
AcDbEntity
  8
0
100
AcDbLine
 10
2959.072998046875
 20
-1456.880126953125
 30
0.0
 11
2959.072998046875
 21
-1478.1240234375
 31
0.0
  0
LINE
  5
243
330
17
100
AcDbEntity
  8
0
100
AcDbLine
 10
1876.9068603515625
 20
-11.70941162109375
 30
0.0
 11
1885.575927734375
 21
-13.379953384399414
 31
0.0
  0
LINE
  5
244
330
17
100
AcDbEntity
  8
0
100
AcDbLine
 10
3873.339599609375
 20
-31.432701110839844
 30
0.0
 11
3864.7841796875
 21
-27.281494140625
 31
0.0
  0
LINE
  5
245
330
17
100
AcDbEntity
  8
0
100
AcDbLine
 10
3731.848388671875
 20
-37.97469711303711
 30
0.0
 11
3744.36767578125
 21
-37.97469711303711
 31
0.0
  0
LINE
  5
246
330
17
100
AcDbEntity
  8
0
100
AcDbLine
 10
3840.40869140625
 20
-46.57529067993164
 30
0.0
 11
3824.298095703125
 21
-46.57529067993164
 31
0.0
  0
LINE
  5
247
330
17
100
AcDbEntity
  8
0
100
AcDbLine
 10
3846.8720703125
 20
-791.4929809570312
 30
0.0
 11
3859.380859375
 21
-791.4929809570312
 31
0.0
  0
LINE
  5
248
330
17
100
AcDbEntity
  8
0
100
AcDbLine
 10
2838.1357421875
 20
-860.73388671875
 30
0.0
 11
2860.663330078125
 21
-860.73388671875
 31
0.0
  0
LINE
  5
249
330
17
100
AcDbEntity
  8
0
100
AcDbLine
 10
1979.5416259765625
 20
-58.64741897583008
 30
0.0
 11
1968.0361328125
 21
-56.01323318481445
 31
0.0
  0
LINE
  5
24A
330
17
100
AcDbEntity
  8
0
100
AcDbLine
 10
1040.98486328125
 20
-2313.14501953125
 30
0.0
 11
1040.98486328125
 21
-2295.62939453125
 31
0.0
  0
LINE
  5
24B
330
17
100
AcDbEntity
  8
0
100
AcDbLine
 10
3914.33056640625
 20
-789.8966064453125
 30
0.0
 11
3936.822998046875
 21
-789.8966064453125
 31
0.0
  0
ENDSEC
  0
SECTION
  2
OBJECTS
  0
DICTIONARY
  5
A
330
0
100
AcDbDictionary
281
1
  3
ACAD_COLOR
350
B
  3
ACAD_GROUP
350
C
  3
ACAD_LAYOUT
350
D
  3
ACAD_MATERIAL
350
E
  3
ACAD_MLEADERSTYLE
350
F
  3
ACAD_MLINESTYLE
350
10
  3
ACAD_PLOTSETTINGS
350
11
  3
ACAD_PLOTSTYLENAME
350
12
  3
ACAD_SCALELIST
350
14
  3
ACAD_TABLESTYLE
350
15
  3
ACAD_VISUALSTYLE
350
16
  3
EZDXF_META
350
2D
  0
DICTIONARY
  5
B
330
A
100
AcDbDictionary
281
1
  0
DICTIONARY
  5
C
330
A
100
AcDbDictionary
281
1
  0
DICTIONARY
  5
D
330
A
100
AcDbDictionary
281
1
  3
Model
350
1A
  3
Layout1
350
1E
  0
DICTIONARY
  5
E
330
A
100
AcDbDictionary
281
1
  3
ByBlock
350
1F
  3
ByLayer
350
20
  3
Global
350
21
  0
DICTIONARY
  5
F
330
A
100
AcDbDictionary
281
1
  3
Standard
350
2C
  0
DICTIONARY
  5
10
330
A
100
AcDbDictionary
281
1
  3
Standard
350
22
  0
DICTIONARY
  5
11
330
A
100
AcDbDictionary
281
1
  0
ACDBDICTIONARYWDFLT
  5
12
330
A
100
AcDbDictionary
281
1
  3
Normal
350
13
100
AcDbDictionaryWithDefault
340
13
  0
ACDBPLACEHOLDER
  5
13
330
12
  0
DICTIONARY
  5
14
330
A
100
AcDbDictionary
281
1
  0
DICTIONARY
  5
15
330
A
100
AcDbDictionary
281
1
  0
DICTIONARY
  5
16
330
A
100
AcDbDictionary
281
1
  0
LAYOUT
  5
1A
330
D
100
AcDbPlotSettings
  1

  4
A3
  6

 40
7.5
 41
20.0
 42
7.5
 43
20.0
 44
420.0
 45
297.0
 46
0.0
 47
0.0
 48
0.0
 49
0.0
140
0.0
141
0.0
142
1.0
143
1.0
 70
1024
 72
1
 73
0
 74
5
  7

 75
16
 76
0
 77
2
 78
300
147
1.0
148
0.0
149
0.0
100
AcDbLayout
  1
Model
 70
1
 71
0
 10
0.0
 20
0.0
 11
420.0
 21
297.0
 12
0.0
 22
0.0
 32
0.0
 14
1e+20
 24
1e+20
 34
1e+20
 15
-1e+20
 25
-1e+20
 35
-1e+20
146
0.0
 13
0.0
 23
0.0
 33
0.0
 16
1.0
 26
0.0
 36
0.0
 17
0.0
 27
1.0
 37
0.0
 76
1
330
17
  0
LAYOUT
  5
1E
330
D
100
AcDbPlotSettings
  1

  4
A3
  6

 40
7.5
 41
20.0
 42
7.5
 43
20.0
 44
420.0
 45
297.0
 46
0.0
 47
0.0
 48
0.0
 49
0.0
140
0.0
141
0.0
142
1.0
143
1.0
 70
0
 72
1
 73
0
 74
5
  7

 75
16
 76
0
 77
2
 78
300
147
1.0
148
0.0
149
0.0
100
AcDbLayout
  1
Layout1
 70
1
 71
1
 10
0.0
 20
0.0
 11
420.0
 21
297.0
 12
0.0
 22
0.0
 32
0.0
 14
1e+20
 24
1e+20
 34
1e+20
 15
-1e+20
 25
-1e+20
 35
-1e+20
146
0.0
 13
0.0
 23
0.0
 33
0.0
 16
1.0
 26
0.0
 36
0.0
 17
0.0
 27
1.0
 37
0.0
 76
1
330
1B
  0
MATERIAL
  5
1F
102
{ACAD_REACTORS
330
E
102
}
330
E
100
AcDbMaterial
  1
ByBlock
  2

 70
0
 40
1.0
 71
1
 41
1.0
 91
-1023410177
 42
1.0
 72
1
  3

 73
1
 74
1
 75
1
 44
0.5
 73
0
 45
1.0
 46
1.0
 77
1
  4

 78
1
 79
1
170
1
 48
1.0
171
1
  6

172
1
173
1
174
1
140
1.0
141
1.0
175
1
  7

176
1
177
1
178
1
143
1.0
179
1
  8

270
1
271
1
272
1
145
1.0
146
1.0
273
1
  9

274
1
275
1
276
1
 42
1.0
 72
1
  3

 73
1
 74
1
 75
1
 94
63
  0
MATERIAL
  5
20
102
{ACAD_REACTORS
330
E
102
}
330
E
100
AcDbMaterial
  1
ByLayer
  2

 70
0
 40
1.0
 71
1
 41
1.0
 91
-1023410177
 42
1.0
 72
1
  3

 73
1
 74
1
 75
1
 44
0.5
 73
0
 45
1.0
 46
1.0
 77
1
  4

 78
1
 79
1
170
1
 48
1.0
171
1
  6

172
1
173
1
174
1
140
1.0
141
1.0
175
1
  7

176
1
177
1
178
1
143
1.0
179
1
  8

270
1
271
1
272
1
145
1.0
146
1.0
273
1
  9

274
1
275
1
276
1
 42
1.0
 72
1
  3

 73
1
 74
1
 75
1
 94
63
  0
MATERIAL
  5
21
102
{ACAD_REACTORS
330
E
102
}
330
E
100
AcDbMaterial
  1
Global
  2

 70
0
 40
1.0
 71
1
 41
1.0
 91
-1023410177
 42
1.0
 72
1
  3

 73
1
 74
1
 75
1
 44
0.5
 73
0
 45
1.0
 46
1.0
 77
1
  4

 78
1
 79
1
170
1
 48
1.0
171
1
  6

172
1
173
1
174
1
140
1.0
141
1.0
175
1
  7

176
1
177
1
178
1
143
1.0
179
1
  8

270
1
271
1
272
1
145
1.0
146
1.0
273
1
  9

274
1
275
1
276
1
 42
1.0
 72
1
  3

 73
1
 74
1
 75
1
 94
63
  0
MLINESTYLE
  5
22
102
{ACAD_REACTORS
330
10
102
}
330
10
100
AcDbMlineStyle
  2
Standard
 70
0
  3

 62
256
 51
90.0
 52
90.0
 71
2
 49
0.5
 62
256
  6
BYLAYER
 49
-0.5
 62
256
  6
BYLAYER
  0
MLEADERSTYLE
  5
2C
102
{ACAD_REACTORS
330
F
102
}
330
F
100
AcDbMLeaderStyle
179
2
170
2
171
1
172
0
 90
2
 40
0.0
 41
0.0
173
1
 91
-1056964608
 92
-2
290
1
 42
2.0
291
1
 43
8.0
  3
Standard
 44
4.0
300

342
29
174
1
175
1
176
0
178
1
 93
-1056964608
 45
4.0
292
0
297
0
 46
4.0
 94
-1056964608
 47
1.0
 49
1.0
140
1.0
294
1
141
0.0
177
0
142
1.0
295
0
296
0
143
3.75
271
0
272
9
273
9
  0
DICTIONARY
  5
2D
330
A
100
AcDbDictionary
280
1
281
1
  3
CREATED_BY_EZDXF
350
2E
  3
WRITTEN_BY_EZDXF
350
24E
  0
DICTIONARYVAR
  5
2E
330
2D
100
DictionaryVariables
280
0
  1
1.4.3 @ 2026-03-26T15:00:07.239552+00:00
  0
DICTIONARYVAR
  5
24E
330
2D
100
DictionaryVariables
280
0
  1
1.4.3 @ 2026-03-26T15:00:07.257359+00:00
  0
ENDSEC
  0
EOF
